<?xml version="1.0" encoding="UTF-8"?>
<svg version="1.1" xmlns="http://www.w3.org/2000/svg" width="376" height="108">
<path d="M0 0 C11.16540839 8.7830719 18.82625099 20.80655367 20.9375 35 C22.0192985 53.01815213 18.56904784 66.94702796 6.9375 81.125 C-1.76022215 90.43874969 -14.38768218 96.75577931 -27.17578125 97.43359375 C-28.90869511 97.45710928 -30.64204734 97.4579578 -32.375 97.4375 C-33.29071777 97.42920166 -34.20643555 97.42090332 -35.14990234 97.41235352 C-49.41849357 97.058722 -60.96049996 91.95109379 -71.375 82.1875 C-81.55854117 71.35837647 -85.76995604 58.73137115 -85.5625 44.0625 C-85.57796875 42.97259766 -85.5934375 41.88269531 -85.609375 40.75976562 C-85.54511999 27.24211883 -80.91720347 15.53185789 -71.80859375 5.5234375 C-52.26428922 -13.23658514 -22.11769055 -15.50200618 0 0 Z " fill="#B13E40" transform="translate(85.0625,10)"/>
<path d="M0 0 C0.64066406 0.47308594 1.28132813 0.94617188 1.94140625 1.43359375 C2.63363281 1.93761719 3.32585937 2.44164062 4.0390625 2.9609375 C10.31521371 7.9466651 13.4326853 13.90743091 15.94140625 21.43359375 C16.81021692 30.96534553 17.39798134 41.20185332 11.94140625 49.43359375 C11.30203125 50.50609375 10.66265625 51.57859375 10.00390625 52.68359375 C7.84774694 55.55847282 5.54363741 57.9583007 2.94140625 60.43359375 C2.05453125 61.36171875 1.16765625 62.28984375 0.25390625 63.24609375 C-2.05859375 65.43359375 -2.05859375 65.43359375 -4.05859375 65.43359375 C-4.55359375 66.91859375 -4.55359375 66.91859375 -5.05859375 68.43359375 C-5.96222656 68.48257813 -6.86585937 68.5315625 -7.796875 68.58203125 C-8.97636719 68.65679687 -10.15585937 68.7315625 -11.37109375 68.80859375 C-13.12873047 68.91300781 -13.12873047 68.91300781 -14.921875 69.01953125 C-18.21559262 69.21973122 -18.21559262 69.21973122 -21.05859375 71.43359375 C-22.04859375 70.77359375 -23.03859375 70.11359375 -24.05859375 69.43359375 C-25.94801395 69.15647879 -27.8456739 68.93345909 -29.74609375 68.74609375 C-36.39377666 67.70614335 -39.59732375 65.30466726 -44.05859375 60.43359375 C-44.74824219 59.74910156 -45.43789063 59.06460938 -46.1484375 58.359375 C-54.89689845 49.28508683 -57.79890762 40.77965125 -57.57592773 28.35424805 C-57.04270403 16.58465327 -52.64961329 9.46712617 -44.05859375 1.43359375 C-31.48059203 -9.14508778 -13.27467922 -9.03750888 0 0 Z " fill="#F8F4F5" transform="translate(73.05859375,22.56640625)"/>
<path d="M0 0 C0 4 0 8 0 12 C0.66 11.67 1.32 11.34 2 11 C1.814375 10.360625 1.62875 9.72125 1.4375 9.0625 C1.293125 8.381875 1.14875 7.70125 1 7 C2 6 2 6 4.9375 5.875 C8 6 8 6 10 7 C10.625 9.5625 10.625 9.5625 11 12 C11.144375 11.195625 11.28875 10.39125 11.4375 9.5625 C12 7 12 7 13 6 C15.18639453 5.92741054 17.37500389 5.91626217 19.5625 5.9375 C21.35880859 5.95103516 21.35880859 5.95103516 23.19140625 5.96484375 C24.11824219 5.97644531 25.04507813 5.98804688 26 6 C26 9.3 26 12.6 26 16 C26.99 16 27.98 16 29 16 C28.67 12.7 28.34 9.4 28 6 C29.65 6 31.3 6 33 6 C33.495 10.455 33.495 10.455 34 15 C34 12.03 34 9.06 34 6 C35.81242052 5.97312721 37.62495233 5.95366285 39.4375 5.9375 C40.44683594 5.92589844 41.45617187 5.91429687 42.49609375 5.90234375 C45 6 45 6 46 7 C46.07179964 8.51928038 46.08392007 10.04167482 46.0625 11.5625 C46.05347656 12.38878906 46.04445313 13.21507813 46.03515625 14.06640625 C46.02355469 14.70449219 46.01195312 15.34257813 46 16 C46.66 16 47.32 16 48 16 C47.90460938 15.31292969 47.80921875 14.62585938 47.7109375 13.91796875 C47.60007812 13.01691406 47.48921875 12.11585937 47.375 11.1875 C47.25898438 10.29417969 47.14296875 9.40085937 47.0234375 8.48046875 C47 6 47 6 49 3 C49.99 3 50.98 3 52 3 C52 3.99 52 4.98 52 6 C52.99 6 53.98 6 55 6 C54.01 3.03 54.01 3.03 53 0 C54.65614657 -0.38218767 56.32457024 -0.71395102 58 -1 C59 0 59 0 59.0625 3.0625 C59.041875 4.031875 59.02125 5.00125 59 6 C59.78375 5.95875 60.5675 5.9175 61.375 5.875 C64 6 64 6 66 8 C66.625 10.125 66.625 10.125 67 12 C67 11.34 67 10.68 67 10 C67.31478446 8.66216607 67.64587656 7.32796291 68 6 C73.4180602 5.63879599 73.4180602 5.63879599 75.8125 7.125 C77.42228269 9.66676215 77.67109009 12.0398108 78 15 C78 14.18015625 78 13.3603125 78 12.515625 C78 8.01041667 78 3.50520833 78 -1 C79.32 -1 80.64 -1 82 -1 C82.495 5.93 82.495 5.93 83 13 C83.66 12.34 84.32 11.68 85 11 C84.59070014 8.94603274 84.59070014 8.94603274 84 7 C85 6 85 6 87.9375 5.8125 C91 6 91 6 93 8 C93.4140625 10.6015625 93.4140625 10.6015625 93.625 13.625 C93.73714844 15.12933594 93.73714844 15.12933594 93.8515625 16.6640625 C93.90054688 17.43492188 93.94953125 18.20578125 94 19 C84.89040835 19.02312545 75.78082674 19.04091612 66.6712122 19.05181217 C62.44168629 19.05704056 58.2121804 19.0641374 53.98266602 19.07543945 C49.90431457 19.08626991 45.82598243 19.09227717 41.74761772 19.09487724 C40.18822361 19.09673121 38.6288306 19.10035127 37.06944466 19.10573006 C34.89270838 19.11294262 32.71605286 19.11399085 30.53930664 19.11352539 C28.67732384 19.11685631 28.67732384 19.11685631 26.77772522 19.12025452 C24 19 24 19 23 18 C22.505 19.485 22.505 19.485 22 21 C22.62648438 21.02578125 23.25296875 21.0515625 23.8984375 21.078125 C24.71570313 21.13484375 25.53296875 21.1915625 26.375 21.25 C27.59316406 21.31960937 27.59316406 21.31960937 28.8359375 21.390625 C29.55007813 21.59171875 30.26421875 21.7928125 31 22 C31.66 23.32 32.32 24.64 33 26 C36.63 26 40.26 26 44 26 C44 24.68 44 23.36 44 22 C45.32 22 46.64 22 48 22 C48 23.32 48 24.64 48 26 C48.75925781 25.98839844 49.51851563 25.97679688 50.30078125 25.96484375 C51.29464844 25.95582031 52.28851563 25.94679688 53.3125 25.9375 C54.29863281 25.92589844 55.28476562 25.91429688 56.30078125 25.90234375 C59 26 59 26 62 27 C63.66965451 26.68197057 65.33678518 26.35015049 67 26 C67.33 26.33 67.66 26.66 68 27 C68.33 25.35 68.66 23.7 69 22 C70.32 22 71.64 22 73 22 C73.495 24.475 73.495 24.475 74 27 C75.1446875 26.7525 75.1446875 26.7525 76.3125 26.5 C82.04877095 25.4327868 88.17149475 26 94 26 C93.14110429 34.7607362 93.14110429 34.7607362 90 38 C86.95788713 38.42146502 84.05055319 38.28778804 81 38 C80.67 37.34 80.34 36.68 80 36 C69.36822033 33.85983656 57.6760758 34.95154904 46.87255859 35.09594727 C44.46451076 35.12598283 42.05661157 35.14384105 39.6484375 35.16015625 C38.90894867 35.17361588 38.16945984 35.1870755 37.40756226 35.20094299 C35.60381958 35.20988085 33.80017287 35.11377682 32 35 C30 33 30 33 29.9375 30.5625 C29.958125 29.716875 29.97875 28.87125 30 28 C29.505 26.515 29.505 26.515 29 25 C28.34 25 27.68 25 27 25 C27 27.64 27 30.28 27 33 C27.99 33.495 27.99 33.495 29 34 C28 35 28 35 24.9375 35.0625 C23.968125 35.041875 22.99875 35.02125 22 35 C22 32.03 22 29.06 22 26 C21.01 26.33 20.02 26.66 19 27 C19 25.68 19 24.36 19 23 C18.01 23 17.02 23 16 23 C16.08378906 23.78246094 16.16757812 24.56492187 16.25390625 25.37109375 C16.35574219 26.38300781 16.45757812 27.39492187 16.5625 28.4375 C16.66691406 29.44683594 16.77132813 30.45617187 16.87890625 31.49609375 C16.91886719 32.32238281 16.95882813 33.14867187 17 34 C16 35 16 35 13.77514648 35.11352539 C12.81680908 35.10828857 11.85847168 35.10305176 10.87109375 35.09765625 C9.31938477 35.09282227 9.31938477 35.09282227 7.73632812 35.08789062 C6.64771484 35.07951172 5.55910156 35.07113281 4.4375 35.0625 C2.7987793 35.05573242 2.7987793 35.05573242 1.12695312 35.04882812 C-1.58208495 35.03699826 -4.29101599 35.02051543 -7 35 C-7.82638376 32.10765685 -8 30.11257569 -8 27 C-3.27303151 26.22825004 1.21270776 25.90793669 6 26 C8.9254644 26.2236068 8.9254644 26.2236068 11 25 C11 23.02 11 21.04 11 19 C10.38511719 19.01160156 9.77023437 19.02320312 9.13671875 19.03515625 C8.32847656 19.04417969 7.52023437 19.05320312 6.6875 19.0625 C5.48673828 19.07990234 5.48673828 19.07990234 4.26171875 19.09765625 C2 19 2 19 -1 18 C-1.66 18.33 -2.32 18.66 -3 19 C-4.54613014 18.91348369 -6.08909387 18.75997364 -7.625 18.5625 C-8.44226563 18.46066406 -9.25953125 18.35882813 -10.1015625 18.25390625 C-10.72804688 18.17011719 -11.35453125 18.08632812 -12 18 C-12 16.02 -12 14.04 -12 12 C-11.34 11.67 -10.68 11.34 -10 11 C-9.01 12.65 -8.02 14.3 -7 16 C-6.34 15.67 -5.68 15.34 -5 15 C-5.68217055 11.79854032 -5.68217055 11.79854032 -8.5 10.6875 C-11 9 -11 9 -12.0625 6.0625 C-12 3 -12 3 -10.5625 0.5625 C-6.74490151 -1.76530396 -4.31910273 -0.86382055 0 0 Z M-7 2 C-7 2.99 -7 3.98 -7 5 C-4.525 5.99 -4.525 5.99 -2 7 C-2.66 5.35 -3.32 3.7 -4 2 C-4.99 2 -5.98 2 -7 2 Z M5 9 C4.67 9.66 4.34 10.32 4 11 C4.66 11 5.32 11 6 11 C5.67 10.34 5.34 9.68 5 9 Z M15 9 C15.33 9.99 15.66 10.98 16 12 C16.33 11.01 16.66 10.02 17 9 C16.34 9 15.68 9 15 9 Z M40 9 C38.64381501 10.12534105 38.64381501 10.12534105 38.9375 13.0625 C38.958125 14.031875 38.97875 15.00125 39 16 C39.99 16 40.98 16 42 16 C42 13.69 42 11.38 42 9 C41.34 9 40.68 9 40 9 Z M52 9 C52 11.31 52 13.62 52 16 C52.99 16 53.98 16 55 16 C55 13.69 55 11.38 55 9 C54.01 9 53.02 9 52 9 Z M59 9 C59 11.31 59 13.62 59 16 C59.99 16 60.98 16 62 16 C62 13.69 62 11.38 62 9 C61.01 9 60.02 9 59 9 Z M71 9 C70.67 9.66 70.34 10.32 70 11 C70.66 11 71.32 11 72 11 C71.67 10.34 71.34 9.68 71 9 Z M87 9 C86.67 9.66 86.34 10.32 86 11 C86.99 11 87.98 11 89 11 C89 10.34 89 9.68 89 9 C88.34 9 87.68 9 87 9 Z M21 10 C20.87625 10.639375 20.7525 11.27875 20.625 11.9375 C20.41875 12.618125 20.2125 13.29875 20 14 C19.01 14.495 19.01 14.495 18 15 C19.32 15.33 20.64 15.66 22 16 C22 14.02 22 12.04 22 10 C21.67 10 21.34 10 21 10 Z M5 14 C4.67 14.66 4.34 15.32 4 16 C4.66 16 5.32 16 6 16 C5.67 15.34 5.34 14.68 5 14 Z M71 14 C71.33 14.66 71.66 15.32 72 16 C72.33 15.34 72.66 14.68 73 14 C72.34 14 71.68 14 71 14 Z M88 14 C87.67 14.66 87.34 15.32 87 16 C87.66 16 88.32 16 89 16 C88.67 15.34 88.34 14.68 88 14 Z M15 19 C15 19.66 15 20.32 15 21 C15.99 20.67 16.98 20.34 18 20 C17.01 19.67 16.02 19.34 15 19 Z M91 28 C92 30 92 30 92 30 Z M-1 29 C0 32 0 32 0 32 Z M3 29 C4 33 4 33 4 33 Z M11 29 C11 30.32 11 31.64 11 33 C11.33 31.68 11.66 30.36 12 29 C11.67 29 11.34 29 11 29 Z M41 29 C41.33 30.32 41.66 31.64 42 33 C42.99 32.67 43.98 32.34 45 32 C45 31.34 45 30.68 45 30 C43.68 29.67 42.36 29.34 41 29 Z M48 29 C49 33 49 33 49 33 Z M52 29 C53 32 53 32 53 32 Z M56 29 C56 30.32 56 31.64 56 33 C56.66 33 57.32 33 58 33 C58 31.68 58 30.36 58 29 C57.34 29 56.68 29 56 29 Z M64 29 C64 29.99 64 30.98 64 32 C64.66 32 65.32 32 66 32 C66 31.01 66 30.02 66 29 C65.34 29 64.68 29 64 29 Z M76 29 C76.33 30.32 76.66 31.64 77 33 C77.33 31.68 77.66 30.36 78 29 C77.34 29 76.68 29 76 29 Z M87 29 C87.33 30.98 87.66 32.96 88 35 C88.66 35 89.32 35 90 35 C89.34 33.02 88.68 31.04 88 29 C87.67 29 87.34 29 87 29 Z " fill="#FDFDFD" transform="translate(282,58)"/>
<path d="M0 0 C1.93627769 -0.10807131 3.87427756 -0.1856225 5.8125 -0.25 C7.43091797 -0.31960937 7.43091797 -0.31960937 9.08203125 -0.390625 C12 0 12 0 13.9453125 1.79296875 C15.5548186 5.16100929 14.06697072 7.54803589 13 11 C13.99 12.485 13.99 12.485 15 14 C15.66 13.01 16.32 12.02 17 11 C16.60061233 8.90178785 16.60061233 8.90178785 16 7 C17 6 17 6 20.5 5.875 C24 6 24 6 25 7 C25.07179964 8.51928038 25.08392007 10.04167482 25.0625 11.5625 C25.05347656 12.38878906 25.04445312 13.21507813 25.03515625 14.06640625 C25.02355469 14.70449219 25.01195312 15.34257813 25 16 C25.66 15.67 26.32 15.34 27 15 C27.08935201 11.78332751 26.84062397 9.09773244 26 6 C27.81242052 5.97312721 29.62495233 5.95366285 31.4375 5.9375 C32.44683594 5.92589844 33.45617187 5.91429687 34.49609375 5.90234375 C37 6 37 6 38 7 C38.36442233 8.66014616 38.69972883 10.32706064 39 12 C39.185625 10.7934375 39.185625 10.7934375 39.375 9.5625 C39.58125 8.716875 39.7875 7.87125 40 7 C43.03429677 5.48285161 46.17601667 5.85636084 49.5 5.875 C50.18964844 5.87113281 50.87929687 5.86726563 51.58984375 5.86328125 C56.74666707 5.87333354 56.74666707 5.87333354 59 7 C59.495 7.99 59.495 7.99 60 9 C60 8.01 60 7.02 60 6 C71.66666667 6 83.33333333 6 95 6 C95.8353125 5.97679687 96.670625 5.95359375 97.53125 5.9296875 C99.00078125 5.90261719 99.00078125 5.90261719 100.5 5.875 C101.4796875 5.85179687 102.459375 5.82859375 103.46875 5.8046875 C106 6 106 6 108 8 C108.44921875 10.34765625 108.44921875 10.34765625 108.6875 13.0625 C108.77386719 13.96097656 108.86023438 14.85945313 108.94921875 15.78515625 C108.96597656 16.51605469 108.98273438 17.24695313 109 18 C107.35110234 19.64889766 105.42654616 19.12998381 103.16015625 19.1328125 C102.17982422 19.13410156 101.19949219 19.13539062 100.18945312 19.13671875 C98.64161133 19.13091797 98.64161133 19.13091797 97.0625 19.125 C95.52045898 19.13080078 95.52045898 19.13080078 93.94726562 19.13671875 C92.96564453 19.13542969 91.98402344 19.13414063 90.97265625 19.1328125 C90.06781494 19.13168457 89.16297363 19.13055664 88.23071289 19.12939453 C86 19 86 19 84 18 C83.505 20.475 83.505 20.475 83 23 C81.02 23 79.04 23 77 23 C76.01 21.02 76.01 21.02 75 19 C74.195625 19.020625 73.39125 19.04125 72.5625 19.0625 C70 19 70 19 69 18 C68.76744186 13.46511628 68.76744186 13.46511628 70 11 C68.68 11 67.36 11 66 11 C65.67 12.65 65.34 14.3 65 16 C65.66 16 66.32 16 67 16 C67 16.99 67 17.98 67 19 C61.72 19 56.44 19 51 19 C50.505 20.485 50.505 20.485 50 22 C47.69 22.33 45.38 22.66 43 23 C43 23.99 43 24.98 43 26 C49.11485027 26.09706112 54.93303301 25.77040851 61 25 C61 24.01 61 23.02 61 22 C61.99 22 62.98 22 64 22 C64.495 23.485 64.495 23.485 65 25 C70.79141983 26.01603857 74.4584498 25.96263236 80 24 C80 24.66 80 25.32 80 26 C82.31 26 84.62 26 87 26 C87.495 28.475 87.495 28.475 88 31 C87.34 31.33 86.68 31.66 86 32 C86.66 32 87.32 32 88 32 C87.67 32.99 87.34 33.98 87 35 C70.5 35 54 35 37 35 C36.67 34.34 36.34 33.68 36 33 C36.66 33 37.32 33 38 33 C37.505 27.555 37.505 27.555 37 22 C37.66 22 38.32 22 39 22 C39 21.01 39 20.02 39 19 C30.09 19 21.18 19 12 19 C10.68 16.69 9.36 14.38 8 12 C7.67 13.32 7.34 14.64 7 16 C7.66 16 8.32 16 9 16 C8.67 16.99 8.34 17.98 8 19 C5.36 19 2.72 19 0 19 C0 18.01 0 17.02 0 16 C0.66 16 1.32 16 2 16 C2 11.38 2 6.76 2 2 C1.34 2 0.68 2 0 2 C0 1.34 0 0.68 0 0 Z M7 2 C7 3.98 7 5.96 7 8 C7.99 7.67 8.98 7.34 10 7 C9.67 5.35 9.34 3.7 9 2 C8.34 2 7.68 2 7 2 Z M20 9 C19.67 9.66 19.34 10.32 19 11 C19.66 11 20.32 11 21 11 C20.67 10.34 20.34 9.68 20 9 Z M32 9 C30.99782936 12.58327753 30.99782936 12.58327753 32 16 C32.66 16 33.32 16 34 16 C34 13.69 34 11.38 34 9 C33.34 9 32.68 9 32 9 Z M44 9 C44 12 44 12 44 12 Z M54 9 C53.67 9.66 53.34 10.32 53 11 C53.66 11 54.32 11 55 11 C54.67 10.34 54.34 9.68 54 9 Z M73 9 C72.67 9.66 72.34 10.32 72 11 C72.99 10.67 73.98 10.34 75 10 C74.34 9.67 73.68 9.34 73 9 Z M79 9 C79 11.31 79 13.62 79 16 C79.66 16 80.32 16 81 16 C81 14.02 81 12.04 81 10 C80.34 9.67 79.68 9.34 79 9 Z M89 9 C88.67 9.66 88.34 10.32 88 11 C88.99 10.67 89.98 10.34 91 10 C90.34 9.67 89.68 9.34 89 9 Z M95 9 C95 11.31 95 13.62 95 16 C95.66 16 96.32 16 97 16 C97 13.69 97 11.38 97 9 C96.34 9 95.68 9 95 9 Z M101 9 C101 11.31 101 13.62 101 16 C101.99 16 102.98 16 104 16 C104 13.69 104 11.38 104 9 C103.01 9 102.02 9 101 9 Z M49 10 C48.67 10.99 48.34 11.98 48 13 C47.34 13.66 46.68 14.32 46 15 C47.32 14.67 48.64 14.34 50 14 C50 13.34 50 12.68 50 12 C50.99 11.67 51.98 11.34 53 11 C51.68 10.67 50.36 10.34 49 10 Z M85 10 C85.33 10.99 85.66 11.98 86 13 C86.66 12.34 87.32 11.68 88 11 C87.01 10.67 86.02 10.34 85 10 Z M20 14 C21 16 21 16 21 16 Z M54 14 C55 16 55 16 55 16 Z M89 14 C89.33 14.66 89.66 15.32 90 16 C90.33 15.34 90.66 14.68 91 14 C90.34 14 89.68 14 89 14 Z M42 19 C42.33 19.66 42.66 20.32 43 21 C43.99 20.67 44.98 20.34 46 20 C44.68 19.67 43.36 19.34 42 19 Z M72 28 C72 29.65 72 31.3 72 33 C72.33 33 72.66 33 73 33 C73 31.35 73 29.7 73 28 C72.67 28 72.34 28 72 28 Z M42 29 C43 33 43 33 43 33 Z M46 29 C47 32 47 32 47 32 Z M60 29 C61 32 61 32 61 32 Z M68 29 C69 32 69 32 69 32 Z " fill="#FEFEFE" transform="translate(115,58)"/>
<path d="M0 0 C11.16540839 8.7830719 18.82625099 20.80655367 20.9375 35 C22.0192985 53.01815213 18.56904784 66.94702796 6.9375 81.125 C-1.76022215 90.43874969 -14.38768218 96.75577931 -27.17578125 97.43359375 C-28.90869511 97.45710928 -30.64204734 97.4579578 -32.375 97.4375 C-33.29071777 97.42920166 -34.20643555 97.42090332 -35.14990234 97.41235352 C-49.41849357 97.058722 -60.96049996 91.95109379 -71.375 82.1875 C-81.55854117 71.35837647 -85.76995604 58.73137115 -85.5625 44.0625 C-85.57796875 42.97259766 -85.5934375 41.88269531 -85.609375 40.75976562 C-85.54511999 27.24211883 -80.91720347 15.53185789 -71.80859375 5.5234375 C-52.26428922 -13.23658514 -22.11769055 -15.50200618 0 0 Z M-71.28515625 9.78515625 C-80.21941216 20.91861361 -84.45280336 34.84264261 -83.0625 49 C-80.57916766 65.40909602 -72.93003702 77.53306662 -59.59375 87.46484375 C-47.10612306 95.03835824 -34.04310121 96.72651261 -20 93.375 C-5.65249905 89.70521799 4.26765525 81.2121713 11.96582031 68.74169922 C18.28252362 57.4192466 19.69211629 43.24198664 16.8203125 30.703125 C12.31903036 16.92043811 4.54316838 6.32804767 -8.0625 -1 C-30.17025999 -11.54957228 -53.99751251 -8.63378524 -71.28515625 9.78515625 Z " fill="#F9F3F3" transform="translate(85.0625,10)"/>
<path d="M0 0 C9.8771026 -0.54872792 18.05825551 2.13557298 26 8 C26.69222656 8.50402344 27.38445312 9.00804687 28.09765625 9.52734375 C34.37380746 14.51307135 37.49127905 20.47383716 40 28 C40.86881067 37.53175178 41.45657509 47.76825957 36 56 C35.360625 57.0725 34.72125 58.145 34.0625 59.25 C31.11967712 63.17376384 28.08249417 66.27833722 24 69 C24.15847412 68.30688721 24.31694824 67.61377441 24.48022461 66.8996582 C25.04116473 63.77035535 25.21100442 60.78258111 25.31640625 57.60546875 C25.35451416 56.52160889 25.39262207 55.43774902 25.43188477 54.32104492 C25.47498779 52.9569751 25.51809082 51.59290527 25.5625 50.1875 C25.706875 45.835625 25.85125 41.48375 26 37 C11.15 37 -3.7 37 -19 37 C-19 36.34 -19 35.68 -19 35 C-4.15 35 10.7 35 26 35 C26 27.74 26 20.48 26 13 C11.15 13 -3.7 13 -19 13 C-19 12.67 -19 12.34 -19 12 C-18.2886792 11.98018066 -17.5773584 11.96036133 -16.84448242 11.93994141 C-13.62511184 11.84475133 -10.4063955 11.73504771 -7.1875 11.625 C-6.06794922 11.5940625 -4.94839844 11.563125 -3.79492188 11.53125 C-2.72177734 11.49257813 -1.64863281 11.45390625 -0.54296875 11.4140625 C0.44678955 11.3826416 1.43654785 11.3512207 2.45629883 11.31884766 C5.24075094 11.16226567 5.24075094 11.16226567 8 9 C8.05167527 6.57732914 8.05167527 6.57732914 7 4 C3.52692672 2.13016255 3.52692672 2.13016255 0 1 C0 0.67 0 0.34 0 0 Z " fill="#F1EDEF" transform="translate(49,16)"/>
<path d="M0 0 C8.25 0 16.5 0 25 0 C25.33 0.99 25.66 1.98 26 3 C24.02 3.33 22.04 3.66 20 4 C20.49713053 11.33267531 22.84499635 17.56076461 25.5 24.375 C25.91636719 25.46683594 26.33273438 26.55867188 26.76171875 27.68359375 C28.71347254 32.91422859 28.71347254 32.91422859 31 38 C32.60378044 34.12970101 34.18788767 30.25208787 35.75463867 26.36669922 C36.28972851 25.04749012 36.83003286 23.73038315 37.37573242 22.41552734 C38.16161579 20.51935944 38.92810966 18.6162913 39.69140625 16.7109375 C40.15748291 15.56931152 40.62355957 14.42768555 41.10375977 13.25146484 C42.0794641 9.71171265 41.88110934 7.52911167 41 4 C39.68 3.67 38.36 3.34 37 3 C37 2.34 37 1.68 37 1 C40.18824568 -0.59412284 43.62896662 -0.10174735 47.125 -0.0625 C47.87910156 -0.05798828 48.63320312 -0.05347656 49.41015625 -0.04882812 C51.27347127 -0.03703499 53.13674555 -0.01909942 55 0 C55.495 1.485 55.495 1.485 56 3 C55.08476562 3.35449219 54.16953125 3.70898438 53.2265625 4.07421875 C49.33209132 6.39864283 48.08665604 8.79328163 46.375 12.8125 C46.05362061 13.52083984 45.73224121 14.22917969 45.40112305 14.95898438 C43.09273259 20.1588813 41.03688615 25.45251311 38.99609375 30.76171875 C38.46507051 32.13112833 37.93398292 33.50051297 37.40283203 34.86987305 C36.34271995 37.60586135 35.31367318 40.35114024 34.30029297 43.10473633 C33.8116813 44.3826338 33.32229458 45.66023527 32.83203125 46.9375 C32.40639893 48.08089844 31.9807666 49.22429688 31.54223633 50.40234375 C30 53 30 53 27.32299805 53.87890625 C26.17311401 53.93884766 26.17311401 53.93884766 25 54 C24.5968457 52.93152832 24.19369141 51.86305664 23.77832031 50.76220703 C22.26596434 46.75483395 20.752308 42.74795305 19.23828125 38.74121094 C18.58623996 37.01510559 17.93453987 35.28887132 17.28320312 33.5625 C15.45668355 28.72166285 13.62326714 23.88356368 11.77905273 19.04943848 C11.09946158 17.26165159 10.42883991 15.47046027 9.75976562 13.67871094 C9.42138672 12.7921582 9.08300781 11.90560547 8.734375 10.9921875 C8.46334961 10.27144043 8.19232422 9.55069336 7.91308594 8.80810547 C6.87511197 6.752695 5.7534583 5.48399713 4 4 C1.89667109 3.28552357 1.89667109 3.28552357 0 3 C0 2.01 0 1.02 0 0 Z " fill="#FDFDFD" transform="translate(115,0)"/>
<path d="M0 0 C3.96 0 7.92 0 12 0 C12.33 6.93 12.66 13.86 13 21 C14.65 20.34 16.3 19.68 18 19 C23.60655906 18.55503499 27.17741401 18.78494267 32 22 C34.0166778 25.12673226 34.25983179 27.67306254 34.30859375 31.3515625 C34.33373047 32.36734375 34.35886719 33.383125 34.38476562 34.4296875 C34.42004977 36.56764556 34.45127073 38.70567438 34.47851562 40.84375 C34.50494141 41.85695312 34.53136719 42.87015625 34.55859375 43.9140625 C34.57204834 44.8417041 34.58550293 45.7693457 34.59936523 46.72509766 C34.79767944 47.85117432 34.79767944 47.85117432 35 49 C35.99 49.66 36.98 50.32 38 51 C38 51.99 38 52.98 38 54 C32.39 54 26.78 54 21 54 C21 53.01 21 52.02 21 51 C22.32 50.34 23.64 49.68 25 49 C25.05786668 45.20839703 25.09355054 41.41690689 25.125 37.625 C25.14175781 36.54476562 25.15851563 35.46453125 25.17578125 34.3515625 C25.18222656 33.3203125 25.18867188 32.2890625 25.1953125 31.2265625 C25.20578613 30.27346191 25.21625977 29.32036133 25.22705078 28.33837891 C25.23131867 25.8076787 25.23131867 25.8076787 23 24 C19.41656024 23.83322718 19.41656024 23.83322718 16 24 C12.63994476 29.379616 12.6327353 33.75378149 12.8125 39.875 C12.82603516 40.75414062 12.83957031 41.63328125 12.85351562 42.5390625 C12.88863377 44.69297552 12.94243306 46.84657004 13 49 C14.32 49.66 15.64 50.32 17 51 C17 51.99 17 52.98 17 54 C11.06 54 5.12 54 -1 54 C-1 53.01 -1 52.02 -1 51 C0.32 50.34 1.64 49.68 3 49 C3 34.48 3 19.96 3 5 C1.68 4.34 0.36 3.68 -1 3 C-0.67 2.01 -0.34 1.02 0 0 Z " fill="#FEFEFE" transform="translate(338,0)"/>
<path d="M0 0 C7.08407758 -0.07587748 14.16805094 -0.12852671 21.25244141 -0.16479492 C23.66393957 -0.17990945 26.07541014 -0.20040153 28.48681641 -0.22631836 C31.94700928 -0.26258425 35.40683971 -0.27969956 38.8671875 -0.29296875 C39.95055389 -0.30845261 41.03392029 -0.32393646 42.15011597 -0.33988953 C43.1510025 -0.34011612 44.15188904 -0.34034271 45.18310547 -0.34057617 C46.06690887 -0.34723801 46.95071228 -0.35389984 47.86129761 -0.36076355 C48.5670694 -0.24171158 49.27284119 -0.12265961 50 0 C52.42130331 3.63195496 52.21022785 5.38349348 52.125 9.6875 C52.10695313 10.86699219 52.08890625 12.04648438 52.0703125 13.26171875 C52.04710937 14.16535156 52.02390625 15.06898437 52 16 C51.01 16 50.02 16 49 16 C48.70609375 15.07767578 48.70609375 15.07767578 48.40625 14.13671875 C46.6991014 9.32908731 46.6991014 9.32908731 43.234375 5.76953125 C39.81414082 4.44318059 36.47688529 3.91778151 32.85058594 3.47265625 C31.57989258 3.31667969 30.30919922 3.16070312 29 3 C29.0938165 8.58703959 29.19997292 14.17366022 29.31738281 19.76025391 C29.35557692 21.65927778 29.39044625 23.55837164 29.421875 25.45751953 C29.46773387 28.19328763 29.52569337 30.92857792 29.5859375 33.6640625 C29.59748871 34.50804596 29.60903992 35.35202942 29.62094116 36.22158813 C29.73460875 40.80026599 30.02594986 44.77577997 32 49 C35.01779872 50.45160938 35.01779872 50.45160938 38 51 C38 51.99 38 52.98 38 54 C29.42 54 20.84 54 12 54 C12 53.01 12 52.02 12 51 C12.969375 50.71125 13.93875 50.4225 14.9375 50.125 C18.10664203 49.35785318 18.10664203 49.35785318 19 47 C19.11747478 45.58117119 19.17685428 44.15728586 19.20532227 42.73388672 C19.22526749 41.85312469 19.24521271 40.97236267 19.26576233 40.06491089 C19.29083107 38.63672531 19.29083107 38.63672531 19.31640625 37.1796875 C19.33718735 36.20589142 19.35796844 35.23209534 19.37937927 34.22879028 C19.44488598 31.11093353 19.50376497 27.99299097 19.5625 24.875 C19.60568415 22.76431396 19.6492984 20.65363667 19.69335938 18.54296875 C19.80056847 13.3620705 19.90233278 8.18108644 20 3 C18.06357527 3.27593394 16.12900251 3.56488696 14.1953125 3.859375 C13.11781738 4.01889648 12.04032227 4.17841797 10.93017578 4.34277344 C6.96195999 5.23282817 5.2769979 6.66040308 3 10 C1.66436389 13.16701423 1.66436389 13.16701423 1 16 C0.01 16 -0.98 16 -2 16 C-2.05423638 14.08364783 -2.09289963 12.16685075 -2.125 10.25 C-2.14820313 9.18265625 -2.17140625 8.1153125 -2.1953125 7.015625 C-2.00106409 4.01642952 -1.40654523 2.57947742 0 0 Z " fill="#FEFEFE" transform="translate(231,0)"/>
<path d="M0 0 C4.70873957 2.83909298 7.61653682 5.49572174 9.1640625 10.83984375 C9.73762167 14.26845299 9.70153801 17.47103013 9.515625 20.94140625 C8.855625 20.94140625 8.195625 20.94140625 7.515625 20.94140625 C7.185625 19.95140625 6.855625 18.96140625 6.515625 17.94140625 C5.525625 18.27140625 4.535625 18.60140625 3.515625 18.94140625 C3.845625 19.93140625 4.175625 20.92140625 4.515625 21.94140625 C6.53070858 22.67464421 6.53070858 22.67464421 8.515625 22.94140625 C8.515625 23.60140625 8.515625 24.26140625 8.515625 24.94140625 C7.525625 24.94140625 6.535625 24.94140625 5.515625 24.94140625 C5.4125 25.72515625 5.309375 26.50890625 5.203125 27.31640625 C4.515625 29.94140625 4.515625 29.94140625 1.515625 31.94140625 C0.195625 31.94140625 -1.124375 31.94140625 -2.484375 31.94140625 C-2.484375 31.28140625 -2.484375 30.62140625 -2.484375 29.94140625 C-4.134375 30.27140625 -5.784375 30.60140625 -7.484375 30.94140625 C-8.79595016 28.31825593 -8.38087488 26.71107189 -8.046875 23.81640625 C-7.94503906 22.90632813 -7.84320313 21.99625 -7.73828125 21.05859375 C-7.65449219 20.35992187 -7.57070313 19.66125 -7.484375 18.94140625 C-10.85186012 20.46088124 -12.09277837 21.46241467 -13.484375 24.94140625 C-14.804375 24.61140625 -16.124375 24.28140625 -17.484375 23.94140625 C-17.484375 24.60140625 -17.484375 25.26140625 -17.484375 25.94140625 C-15.834375 26.27140625 -14.184375 26.60140625 -12.484375 26.94140625 C-12.814375 28.59140625 -13.144375 30.24140625 -13.484375 31.94140625 C-16.82092652 31.69425429 -17.70974089 30.7106745 -20.109375 28.25390625 C-23.36538604 24.02310179 -24.7769101 20.23392859 -24.234375 14.87890625 C-23.13929542 8.46660693 -21.212782 5.34447735 -16.23828125 1.17578125 C-11.46491335 -2.18364917 -5.24248691 -2.23382697 0 0 Z " fill="#BFC3D2" transform="translate(59.484375,55.05859375)"/>
<path d="M0 0 C14.85 0 29.7 0 45 0 C45.1546875 6.4659375 45.1546875 6.4659375 45.3125 13.0625 C45.35802002 14.40836182 45.40354004 15.75422363 45.45043945 17.14086914 C45.5354037 24.48123191 45.17470841 28.63448376 40 34 C35.59230283 37.07513756 31.40140376 37.45627431 26.171875 37.7890625 C23.95435477 37.87338212 23.95435477 37.87338212 22 39 C21.34 38.67 20.68 38.34 20 38 C18.08517271 37.73628127 16.1681226 37.48857246 14.25 37.25 C8.5965061 36.3348661 5.79179189 35.29071187 2 31 C0.09097093 27.16594442 -0.23726094 24.08198553 -0.1953125 19.82421875 C-0.19031738 18.78096436 -0.18532227 17.73770996 -0.18017578 16.6628418 C-0.16196777 15.350979 -0.14375977 14.03911621 -0.125 12.6875 C-0.08375 8.500625 -0.0425 4.31375 0 0 Z M7 9 C4.70331171 14.42853595 4.55837541 19.34677214 6 25 C7.8791895 28.3825411 9.92424706 31.59288901 13 34 C13.99 34 14.98 34 16 34 C16.33 32.35 16.66 30.7 17 29 C15.35 28.67 13.7 28.34 12 28 C12 27.34 12 26.68 12 26 C13.32 26.33 14.64 26.66 16 27 C16.6496875 25.7934375 16.6496875 25.7934375 17.3125 24.5625 C19 22 19 22 22 21 C21.91621094 21.69867188 21.83242188 22.39734375 21.74609375 23.1171875 C21.64425781 24.02726562 21.54242188 24.93734375 21.4375 25.875 C21.33308594 26.77992187 21.22867188 27.68484375 21.12109375 28.6171875 C20.80325148 31.01653057 20.80325148 31.01653057 22 33 C23.65 32.67 25.3 32.34 27 32 C27 32.66 27 33.32 27 34 C30.37462715 33.45276317 32.08235 32.9451 35 31 C35 29.68 35 28.36 35 27 C35.99 27 36.98 27 38 27 C38 26.34 38 25.68 38 25 C37.360625 24.896875 36.72125 24.79375 36.0625 24.6875 C35.381875 24.460625 34.70125 24.23375 34 24 C33.67 23.01 33.34 22.02 33 21 C33.99 20.67 34.98 20.34 36 20 C36.33 20.99 36.66 21.98 37 23 C37.66 23 38.32 23 39 23 C39.47124562 16.52037273 38.69447966 11.47407408 35 6 C31.29111565 2.39995425 27.53828934 0.71767662 22.375 0.5 C15.72117127 0.92300973 11.18779062 3.88158924 7 9 Z " fill="#3E4B7A" transform="translate(30,53)"/>
<path d="M0 0 C14.52 0 29.04 0 44 0 C44 6.93 44 13.86 44 21 C37.07 21 30.14 21 23 21 C23 20.34 23 19.68 23 19 C24.65 18.67 26.3 18.34 28 18 C28 15.69 28 13.38 28 11 C27.34 10.67 26.68 10.34 26 10 C25.12611995 7.97259829 24.47019078 5.9092763 23.78125 3.8125 C23.14670555 1.80487204 23.14670555 1.80487204 21 1 C20.7834375 2.11375 20.7834375 2.11375 20.5625 3.25 C20.376875 4.1575 20.19125 5.065 20 6 C19.855625 6.7425 19.71125 7.485 19.5625 8.25 C19.376875 8.8275 19.19125 9.405 19 10 C18.01 10.495 18.01 10.495 17 11 C17 13.31 17 15.62 17 18 C18.32 18.33 19.64 18.66 21 19 C21 19.66 21 20.32 21 21 C14.07 21 7.14 21 0 21 C0 14.07 0 7.14 0 0 Z " fill="#A7393E" transform="translate(30,29)"/>
<path d="M0 0 C2.75412888 1.79338625 4.16117556 2.85801685 5.6875 5.75 C6.0175 8.06 6.3475 10.37 6.6875 12.75 C-0.9025 12.75 -8.4925 12.75 -16.3125 12.75 C-14.40814016 23.31587843 -14.40814016 23.31587843 -9.3125 27.75 C-6.32252175 29.24498913 -3.61207225 28.86577446 -0.3125 28.75 C0.6775 28.42 1.6675 28.09 2.6875 27.75 C3.90619929 25.24552484 3.90619929 25.24552484 4.6875 22.75 C5.3475 22.75 6.0075 22.75 6.6875 22.75 C6.32120166 29.09917127 6.32120166 29.09917127 3.375 32.125 C-1.35373575 34.98423557 -5.82134255 35.29602504 -11.3125 34.75 C-17.28171101 33.00040367 -20.9963252 29.92456805 -24.3125 24.75 C-26.2002671 18.87062897 -25.67918041 13.25569382 -23.359375 7.609375 C-21.15140148 3.68775038 -17.83916933 1.59368568 -13.9375 -0.5625 C-8.86098113 -1.89206447 -4.84085879 -1.82673917 0 0 Z M-11.796875 3.02734375 C-14.22242958 5.62185853 -14.22242958 5.62185853 -15.3125 8.75 C-11.0225 8.75 -6.7325 8.75 -2.3125 8.75 C-2.6425 7.1 -2.9725 5.45 -3.3125 3.75 C-6.33902642 1.73231572 -8.68524451 0.34970383 -11.796875 3.02734375 Z " fill="#FEFEFE" transform="translate(295.3125,20.25)"/>
<path d="M0 0 C3.31751966 2.26194522 4.9012631 4.31973673 6.75 7.875 C6.75 9.525 6.75 11.175 6.75 12.875 C-0.51 12.875 -7.77 12.875 -15.25 12.875 C-13.95461235 21.83492115 -13.95461235 21.83492115 -9.25 27.875 C-6.15826248 29.42086876 -3.65570448 29.16859521 -0.25 28.875 C2.11497439 27.00791495 3.41030715 25.55438569 4.75 22.875 C5.74 23.205 6.73 23.535 7.75 23.875 C7.52812436 27.75782378 6.78752696 28.83830697 3.9375 31.625 C-0.91487834 35.05020824 -4.311287 35.2709142 -10.25 34.875 C-15.74223227 33.57123645 -19.19441006 31.81095299 -22.25 26.875 C-24.92177194 22.19939911 -24.88740533 17.10969131 -24.25 11.875 C-22.84523942 7.20576738 -21.0126876 4.48203707 -17.1875 1.4375 C-11.41453418 -1.6332265 -6.13590567 -2.12396735 0 0 Z M-14.25 5.875 C-14.25 6.865 -14.25 7.855 -14.25 8.875 C-9.96 8.875 -5.67 8.875 -1.25 8.875 C-2.72639003 3.81491361 -2.72639003 3.81491361 -6.25 1.875 C-10.1978088 1.875 -11.43508826 3.21224565 -14.25 5.875 Z " fill="#FDFDFD" transform="translate(182.25,20.125)"/>
<path d="M0 0 C3.96 0 7.92 0 12 0 C12.33 16.5 12.66 33 13 50 C14.32 50.33 15.64 50.66 17 51 C17 51.99 17 52.98 17 54 C11.06 54 5.12 54 -1 54 C-1 53.01 -1 52.02 -1 51 C0.485 50.505 0.485 50.505 2 50 C3.15410254 47.69179492 3.1210297 46.39215724 3.11352539 43.82568359 C3.11344986 42.96494232 3.11337433 42.10420105 3.11329651 41.21737671 C3.10813522 40.28712677 3.10297394 39.35687683 3.09765625 38.3984375 C3.0962413 37.44683746 3.09482635 36.49523743 3.09336853 35.51480103 C3.08776012 32.46816903 3.07520619 29.42160987 3.0625 26.375 C3.05748608 24.31250106 3.05292299 22.25000097 3.04882812 20.1875 C3.03778796 15.12497183 3.02051767 10.06249827 3 5 C1.68 4.34 0.36 3.68 -1 3 C-0.67 2.01 -0.34 1.02 0 0 Z " fill="#FEFEFE" transform="translate(193,0)"/>
<path d="M0 0 C2.5 1.5625 2.5 1.5625 3.5 2.5625 C3.54080783 4.56208364 3.54254356 6.56295254 3.5 8.5625 C1.1875 9.25 1.1875 9.25 -1.5 9.5625 C-4.08503711 7.74339981 -5.22431911 5.40824968 -6.5 2.5625 C-9.0592805 2.90834872 -11.02075586 3.24300391 -13.1875 4.6875 C-16.59070983 9.54922832 -16.85613629 14.73385865 -16.05078125 20.41015625 C-15.18559079 23.79114877 -13.71693643 25.87530433 -11.5 28.5625 C-8.70129973 29.96185013 -6.59501208 29.81515405 -3.5 29.5625 C-1.46332385 28.01743534 -0.63926922 26.84103844 0.5 24.5625 C1.49 24.5625 2.48 24.5625 3.5 24.5625 C3.01053485 30.06898298 3.01053485 30.06898298 0.625 32.375 C-4.27046334 35.1107001 -9.23509434 35.21668146 -14.625 34.13671875 C-19.20174194 32.72382304 -22.05471135 30.73880067 -24.5859375 26.640625 C-27.20698426 20.681664 -27.0640586 15.25431954 -24.875 9.1875 C-22.61324064 4.22872862 -19.97552857 1.93779365 -15.25 -0.6875 C-9.86991857 -2.15479494 -5.16992506 -2.12336208 0 0 Z " fill="#FEFEFE" transform="translate(331.5,20.4375)"/>
<path d="M0 0 C10.5760377 9.52128461 17.27992936 22.30766559 18.13671875 36.578125 C18.5789349 54.61735674 13.61136094 68.09997405 1.21484375 81.3984375 C-2.01598608 84.48216377 -5.12006727 86.58370199 -9.1015625 88.609375 C-9.7615625 88.279375 -10.4215625 87.949375 -11.1015625 87.609375 C-9.75403014 83.56677792 -7.62739121 82.91472454 -4.1015625 80.609375 C-1.55974205 78.40182593 -1.55974205 78.40182593 0.8984375 75.609375 C1.45660156 75.00609375 2.01476562 74.4028125 2.58984375 73.78125 C11.85993914 62.96947568 14.52620696 49.47261723 13.8984375 35.609375 C13.01180751 24.64585422 7.20627855 11.96666216 -1.1015625 4.609375 C-10.67367495 -3.27859558 -21.49192805 -8.08795059 -33.8515625 -8.953125 C-35.02203125 -9.03691406 -36.1925 -9.12070313 -37.3984375 -9.20703125 C-38.29046875 -9.26761719 -39.1825 -9.32820312 -40.1015625 -9.390625 C-40.1015625 -9.720625 -40.1015625 -10.050625 -40.1015625 -10.390625 C-24.01565375 -12.15980278 -12.99597279 -10.22305314 0 0 Z " fill="#F6ECEC" transform="translate(88.1015625,12.390625)"/>
<path d="M0 0 C1.2065625 0.0309375 1.2065625 0.0309375 2.4375 0.0625 C4.4375 3.9375 4.4375 3.9375 4.4375 5.0625 C6.4175 4.7325 8.3975 4.4025 10.4375 4.0625 C10.7675 2.7425 11.0975 1.4225 11.4375 0.0625 C12.4275 0.0625 13.4175 0.0625 14.4375 0.0625 C14.4375 1.7125 14.4375 3.3625 14.4375 5.0625 C15.984375 4.815 15.984375 4.815 17.5625 4.5625 C20.93207505 4.12771612 24.05015509 3.98722567 27.4375 4.0625 C29.60689744 4.0625 31.77676723 4.05298783 33.9453125 3.9921875 C34.80898438 3.97414063 35.67265625 3.95609375 36.5625 3.9375 C37.43132812 3.91429688 38.30015625 3.89109375 39.1953125 3.8671875 C41.4375 4.0625 41.4375 4.0625 43.4375 6.0625 C43.625 9.125 43.625 9.125 43.4375 12.0625 C42.4375 13.0625 42.4375 13.0625 38.95922852 13.17602539 C37.41161206 13.17586619 35.86399033 13.170167 34.31640625 13.16015625 C33.50131088 13.1587413 32.68621552 13.15732635 31.84642029 13.15586853 C29.23091016 13.1502532 26.61548439 13.13770467 24 13.125 C22.23893353 13.1199864 20.47786572 13.11542325 18.71679688 13.11132812 C14.29033497 13.1000821 9.86393266 13.08197067 5.4375 13.0625 C4.7775 13.0625 4.1175 13.0625 3.4375 13.0625 C0.77083333 13.0625 -1.89583333 13.0625 -4.5625 13.0625 C-4.605221 11.39638095 -4.60313832 9.72867115 -4.5625 8.0625 C-4.2325 7.7325 -3.9025 7.4025 -3.5625 7.0625 C-3.5625 6.0725 -3.5625 5.0825 -3.5625 4.0625 C-3.5625 0.08689024 -3.5625 0.08689024 0 0 Z M7.4375 7.0625 C7.7675 8.3825 8.0975 9.7025 8.4375 11.0625 C9.4275 10.7325 10.4175 10.4025 11.4375 10.0625 C11.4375 9.4025 11.4375 8.7425 11.4375 8.0625 C10.1175 7.7325 8.7975 7.4025 7.4375 7.0625 Z M24.4375 7.0625 C25.4375 11.0625 25.4375 11.0625 25.4375 11.0625 Z M32.4375 7.0625 C32.7675 8.3825 33.0975 9.7025 33.4375 11.0625 C34.0975 10.7325 34.7575 10.4025 35.4375 10.0625 C35.4375 9.4025 35.4375 8.7425 35.4375 8.0625 C34.4475 7.7325 33.4575 7.4025 32.4375 7.0625 Z M-1.5625 8.0625 C-1.2325 9.0525 -0.9025 10.0425 -0.5625 11.0625 C-0.5625 10.0725 -0.5625 9.0825 -0.5625 8.0625 C-0.8925 8.0625 -1.2225 8.0625 -1.5625 8.0625 Z M21.4375 7.0625 C21.4375 7.7225 21.4375 8.3825 21.4375 9.0625 C20.1175 9.3925 18.7975 9.7225 17.4375 10.0625 C19.9125 10.5575 19.9125 10.5575 22.4375 11.0625 C22.1075 9.7425 21.7775 8.4225 21.4375 7.0625 Z " fill="#FDFDFD" transform="translate(227.5625,79.9375)"/>
<path d="M0 0 C6.93 0 13.86 0 21 0 C21 6.6 21 13.2 21 20 C14.07 20 7.14 20 0 20 C0 19.34 0 18.68 0 18 C1.65 17.67 3.3 17.34 5 17 C5 14.69 5 12.38 5 10 C4.34 9.67 3.68 9.34 3 9 C2.01 6.03 1.02 3.06 0 0 Z " fill="#AC3335" transform="translate(53,30)"/>
<path d="M0 0 C6.625 -0.25 6.625 -0.25 10 2 C10.1875 4.625 10.1875 4.625 10 7 C10.37125 5.5459375 10.37125 5.5459375 10.75 4.0625 C11.1625 3.051875 11.575 2.04125 12 1 C14.125 0.125 14.125 0.125 16 0 C16.33 1.32 16.66 2.64 17 4 C18.32 4.33 19.64 4.66 21 5 C20.34 6.65 19.68 8.3 19 10 C19.99 10 20.98 10 22 10 C21.505 5.05 21.505 5.05 21 0 C28.11111111 -0.35555556 28.11111111 -0.35555556 31.5 1 C33.95824727 4.27766302 33.38318872 6.9765184 33 11 C31 13 31 13 27.62890625 13.16015625 C26.27323533 13.13753956 24.91770669 13.10457133 23.5625 13.0625 C18.21268929 12.88410785 18.21268929 12.88410785 13 14 C10.767731 13.91382274 8.53761514 13.76077759 6.3125 13.5625 C5.13300781 13.46066406 3.95351562 13.35882813 2.73828125 13.25390625 C1.83464844 13.17011719 0.93101563 13.08632812 0 13 C0 12.34 0 11.68 0 11 C0.66 11 1.32 11 2 11 C2 8.36 2 5.72 2 3 C1.34 3 0.68 3 0 3 C0 2.01 0 1.02 0 0 Z M5 3 C6 5 6 5 6 5 Z M25 3 C25 5.31 25 7.62 25 10 C26.32 10 27.64 10 29 10 C29 8.02 29 6.04 29 4 C27.68 3.67 26.36 3.34 25 3 Z M13 8 C13 8.99 13 9.98 13 11 C13.66 10.67 14.32 10.34 15 10 C14.34 9.34 13.68 8.68 13 8 Z " fill="#FEFEFE" transform="translate(115,80)"/>
<path d="M0 0 C2.06132142 -0.10864945 4.12431321 -0.18588321 6.1875 -0.25 C7.33605469 -0.29640625 8.48460937 -0.3428125 9.66796875 -0.390625 C13.63979862 0.0750057 15.18771485 1.22370387 18 4 C18.33 4.66 18.66 5.32 19 6 C21.97 6 24.94 6 28 6 C28 7.32 28 8.64 28 10 C27.01 10 26.02 10 25 10 C25 12.97 25 15.94 25 19 C23.02 19 21.04 19 19 19 C19 17.02 19 15.04 19 13 C18.401875 13.804375 17.80375 14.60875 17.1875 15.4375 C15 18 15 18 12 19 C9.93854893 19.068991 7.87498599 19.08467727 5.8125 19.0625 C4.18248047 19.04896484 4.18248047 19.04896484 2.51953125 19.03515625 C1.68808594 19.02355469 0.85664063 19.01195313 0 19 C0 18.01 0 17.02 0 16 C0.66 16 1.32 16 2 16 C1.85890014 13.89551062 1.71195825 11.7914123 1.5625 9.6875 C1.48128906 8.51574219 1.40007812 7.34398438 1.31640625 6.13671875 C1.1132629 2.97409042 1.1132629 2.97409042 0 0 Z M7 2 C7 6.62 7 11.24 7 16 C8.65 15.67 10.3 15.34 12 15 C14.35618542 12.11400612 14.35618542 12.11400612 13.8125 8.5 C12.92428783 4.50432224 12.92428783 4.50432224 10 2 C9.01 2 8.02 2 7 2 Z " fill="#FDFDFD" transform="translate(230,58)"/>
<path d="M0 0 C2.475 0.495 2.475 0.495 5 1 C4.67 3.31 4.34 5.62 4 8 C4.66 7.67 5.32 7.34 6 7 C6 4.69 6 2.38 6 0 C7.32 0.33 8.64 0.66 10 1 C10 1.66 10 2.32 10 3 C14.07510438 3.0247345 18.15017964 3.04287637 22.2253418 3.05493164 C23.61141725 3.05995777 24.99748741 3.06677966 26.38354492 3.07543945 C28.37676715 3.08758018 30.37002819 3.09271021 32.36328125 3.09765625 C33.56251221 3.10289307 34.76174316 3.10812988 35.99731445 3.11352539 C39.05156451 3.13845618 39.05156451 3.13845618 42 2 C42 2.66 42 3.32 42 4 C43.98 4 45.96 4 48 4 C47.34 6.31 46.68 8.62 46 11 C45.35450195 10.96970703 44.70900391 10.93941406 44.04394531 10.90820312 C41.11267403 10.77117858 38.1813387 10.63557441 35.25 10.5 C34.23421875 10.45230469 33.2184375 10.40460938 32.171875 10.35546875 C31.1921875 10.31035156 30.2125 10.26523438 29.203125 10.21875 C28.30239258 10.17685547 27.40166016 10.13496094 26.47363281 10.09179688 C24.31702276 10.01176476 22.15809454 10 20 10 C14 10 8 10 2 10 C0 3.375 0 3.375 0 0 Z M15 6 C16 8 16 8 16 8 Z M31 6 C32 8 32 8 32 8 Z M42 6 C43 8 43 8 43 8 Z " fill="#FEFEFE" transform="translate(187,97)"/>
<path d="M0 0 C1.45945288 0.08708669 2.91765868 0.19526907 4.375 0.3125 C5.59316406 0.39951172 5.59316406 0.39951172 6.8359375 0.48828125 C9 1 9 1 11 4 C13.81274752 4.41764382 13.81274752 4.41764382 17.1015625 4.29296875 C18.31328125 4.28330078 19.525 4.27363281 20.7734375 4.26367188 C22.04445312 4.23853516 23.31546875 4.21339844 24.625 4.1875 C25.90375 4.17396484 27.1825 4.16042969 28.5 4.14648438 C31.66708282 4.11103196 34.83333541 4.06161441 38 4 C38 2.68 38 1.36 38 0 C38.99 0 39.98 0 41 0 C41.495 4.95 41.495 4.95 42 10 C41.04746338 9.99476318 40.09492676 9.98952637 39.11352539 9.98413086 C35.54078124 9.96587395 31.96804112 9.95449322 28.39526367 9.94506836 C26.85619409 9.94007504 25.31712916 9.93327806 23.77807617 9.92456055 C15.79274406 9.88049997 7.92367363 9.85516888 0 11 C-2.0390625 7.328125 -2.0390625 7.328125 -1.6875 4.375 C-1 2 -1 2 0 0 Z M5 3 C5 4.65 5 6.3 5 8 C5.99 7.67 6.98 7.34 8 7 C7.67 5.68 7.34 4.36 7 3 C6.34 3 5.68 3 5 3 Z M1 4 C2 7 2 7 2 7 Z M23 6 C24 8 24 8 24 8 Z " fill="#FEFEFE" transform="translate(117,97)"/>
<path d="M0 0 C4.95 0 9.9 0 15 0 C10 5 10 5 8.3125 6.375 C5.21022786 10.21590836 4.78752084 14.79761562 5.125 19.5625 C6.11187157 26.30994746 9.70496838 29.99294904 15 34 C15.33 34.66 15.66 35.32 16 36 C9.28864336 35.83594462 5.73203426 34.85033511 1 30 C-0.40912096 27.18175808 -0.11183553 24.82748718 -0.09765625 21.6796875 C-0.09443359 20.42285156 -0.09121094 19.16601562 -0.08789062 17.87109375 C-0.07951172 16.55238281 -0.07113281 15.23367187 -0.0625 13.875 C-0.05748489 12.53515789 -0.05292201 11.195314 -0.04882812 9.85546875 C-0.03701095 6.57029343 -0.01907501 3.28514119 0 0 Z " fill="#3B4978" transform="translate(31,54)"/>
<path d="M0 0 C0.33 0 0.66 0 1 0 C1 7.26 1 14.52 1 22 C-13.85 22 -28.7 22 -44 22 C-44 21.67 -44 21.34 -44 21 C-37.07 21 -30.14 21 -23 21 C-23 20.34 -23 19.68 -23 19 C-24.65 18.67 -26.3 18.34 -28 18 C-28 15.69 -28 13.38 -28 11 C-27.01 10.67 -26.02 10.34 -25 10 C-24.855625 9.2575 -24.71125 8.515 -24.5625 7.75 C-24.09812508 5.47972261 -23.58136431 3.24240521 -23 1 C-20 2 -20 2 -18.8125 3.8125 C-18 6 -18 6 -18 10 C-17.01 10.33 -16.02 10.66 -15 11 C-14.95758277 13.33294775 -14.95907063 15.66702567 -15 18 C-16 19 -16 19 -18.5625 19.0625 C-19.366875 19.041875 -20.17125 19.02125 -21 19 C-21 19.66 -21 20.32 -21 21 C-14.07 21 -7.14 21 0 21 C0 14.07 0 7.14 0 0 Z " fill="#D29293" transform="translate(74,29)"/>
<path d="M0 0 C0.33 0.66 0.66 1.32 1 2 C1.66 2 2.32 2 3 2 C3.33 3.98 3.66 5.96 4 8 C3.01 8 2.02 8 1 8 C1 7.34 1 6.68 1 6 C0.34 6 -0.32 6 -1 6 C-1 6.66 -1 7.32 -1 8 C-1.99 8 -2.98 8 -4 8 C-4 9.32 -4 10.64 -4 12 C-3.34 12.33 -2.68 12.66 -2 13 C-2 13.66 -2 14.32 -2 15 C-2.99 15.33 -3.98 15.66 -5 16 C-7.68848561 24.36417746 -7.61976538 33.28462222 -8 42 C-7.34 42.33 -6.68 42.66 -6 43 C-6.99 43.495 -6.99 43.495 -8 44 C-9.13350534 46.01669827 -9.13350534 46.01669827 -10 48 C-14.38088017 40.40647437 -14.03440065 29.91902484 -12.28125 21.58203125 C-9.9077464 13.41832735 -7.26375023 4.95535503 0 0 Z " fill="#AF3A3C" transform="translate(15,21)"/>
<path d="M0 0 C2.53433425 0.3424776 4.48258728 0.63476749 6.59375 2.125 C8.62837936 4.83783914 8.75813301 7.35164876 9.1875 10.6875 C9.34605469 11.86699219 9.50460938 13.04648438 9.66796875 14.26171875 C9.77753906 15.16535156 9.88710938 16.06898437 10 17 C11.32 16.67 12.64 16.34 14 16 C13.34 16.33 12.68 16.66 12 17 C11.855625 17.804375 11.71125 18.60875 11.5625 19.4375 C11 22 11 22 8 24 C6.68 24 5.36 24 4 24 C4 23.34 4 22.68 4 22 C2.35 22.33 0.7 22.66 -1 23 C-2.35439668 20.29120665 -2.06501451 17.99066732 -2 15 C-1.34 15 -0.68 15 0 15 C-0.65585189 11.39007621 -0.65585189 11.39007621 -2 8 C-1.66015625 6.0546875 -1.66015625 6.0546875 -1.0625 3.875 C-0.86785156 3.15054688 -0.67320313 2.42609375 -0.47265625 1.6796875 C-0.31667969 1.12539062 -0.16070312 0.57109375 0 0 Z " fill="#F1F1F4" transform="translate(53,63)"/>
<path d="M0 0 C0.66 0 1.32 0 2 0 C2 2.64 2 5.28 2 8 C4.64 8 7.28 8 10 8 C10.94693195 11.7016431 11.30443767 13.39112465 9.5625 16.875 C9.046875 17.57625 8.53125 18.2775 8 19 C6.68 18.67 5.36 18.34 4 18 C4 18.66 4 19.32 4 20 C5.65 20.33 7.3 20.66 9 21 C8.67 22.65 8.34 24.3 8 26 C4.66344848 25.75284804 3.77463411 24.76926825 1.375 22.3125 C-1.88101104 18.08169554 -3.2925351 14.29252234 -2.75 8.9375 C-2.24240634 5.75127956 -1.37531025 2.93399521 0 0 Z " fill="#F0F1F4" transform="translate(38,61)"/>
<path d="M0 0 C4.00913539 0.46927741 7.26797828 0.1968538 11.25 -0.5 C13.25 1.5 13.25 1.5 13.4375 5 C13.25 8.5 13.25 8.5 12.25 10.5 C11.13625 10.335 10.0225 10.17 8.875 10 C5.52967967 9.4544542 5.52967967 9.4544542 3.25 9.5 C-1.75 9.5 -6.75 9.5 -11.75 9.5 C-11.75 6.53 -11.75 3.56 -11.75 0.5 C-10.43 0.5 -9.11 0.5 -7.75 0.5 C-7.42 2.15 -7.09 3.8 -6.75 5.5 C-6.75 3.85 -6.75 2.2 -6.75 0.5 C-4.1845146 -0.7827427 -2.82469052 -0.3766254 0 0 Z M4.25 1.5 C4.25 4.5 4.25 4.5 4.25 4.5 Z M-3.75 2.5 C-2.75 4.5 -2.75 4.5 -2.75 4.5 Z M10.25 2.5 C11.25 4.5 11.25 4.5 11.25 4.5 Z M-0.75 5.5 C0.735 6.49 0.735 6.49 2.25 7.5 C2.25 6.84 2.25 6.18 2.25 5.5 C1.26 5.5 0.27 5.5 -0.75 5.5 Z M7.25 5.5 C8.25 7.5 8.25 7.5 8.25 7.5 Z " fill="#FDFDFD" transform="translate(362.75,97.5)"/>
<path d="M0 0 C1.65 0 3.3 0 5 0 C4.67 2.64 4.34 5.28 4 8 C4.66 8 5.32 8 6 8 C6 5.36 6 2.72 6 0 C7.60407328 -0.02708567 9.2082785 -0.04643483 10.8125 -0.0625 C11.70582031 -0.07410156 12.59914063 -0.08570312 13.51953125 -0.09765625 C16 0 16 0 19 1 C19.825 0.835 20.65 0.67 21.5 0.5 C24 0 24 0 27 1 C26.67 2.32 26.34 3.64 26 5 C25.34 5 24.68 5 24 5 C24 4.34 24 3.68 24 3 C23.01 3 22.02 3 21 3 C21.34786708 4.97536745 21.34786708 4.97536745 22 7 C22.66 7.33 23.32 7.66 24 8 C24 7.34 24 6.68 24 6 C24.99 6.33 25.98 6.66 27 7 C26.01 8.485 26.01 8.485 25 10 C21.8828125 10.29296875 21.8828125 10.29296875 18.125 10.1875 C16.27261719 10.14689453 16.27261719 10.14689453 14.3828125 10.10546875 C12.70832031 10.05326172 12.70832031 10.05326172 11 10 C9.68 10 8.36 10 7 10 C5.33333333 10 3.66666667 10 2 10 C0 3.375 0 3.375 0 0 Z M13 3 C12.67 4.32 12.34 5.64 12 7 C12.99 7.495 12.99 7.495 14 8 C14 7.34 14 6.68 14 6 C14.99 5.67 15.98 5.34 17 5 C15.68 4.34 14.36 3.68 13 3 Z " fill="#FDFDFD" transform="translate(300,97)"/>
<path d="M0 0 C5.75 -0.125 5.75 -0.125 8 1 C8 1.66 8 2.32 8 3 C9.32 3.33 10.64 3.66 12 4 C12 3.34 12 2.68 12 2 C12.66 2 13.32 2 14 2 C14 2.66 14 3.32 14 4 C14.99 4 15.98 4 17 4 C17.33 2.68 17.66 1.36 18 0 C18.66 0 19.32 0 20 0 C20 2.31 20 4.62 20 7 C20.99 7 21.98 7 23 7 C23 7.99 23 8.98 23 10 C15.41 10 7.82 10 0 10 C0 6.7 0 3.4 0 0 Z M6 4 C7 6 7 6 7 6 Z " fill="#FEFEFE" transform="translate(237,97)"/>
<path d="M0 0 C0.33 0 0.66 0 1 0 C0.52769387 8.65894572 -3.03930212 15.66675851 -9 22 C-11.75 23.8125 -11.75 23.8125 -14 25 C-13.125 20.25 -13.125 20.25 -12 18 C-11.76827173 15.45384991 -11.58105471 12.92603775 -11.4375 10.375 C-11.39431641 9.66859375 -11.35113281 8.9621875 -11.30664062 8.234375 C-11.20055249 6.48981463 -11.09977111 4.74493303 -11 3 C-10.28972656 2.95101562 -9.57945313 2.90203125 -8.84765625 2.8515625 C-7.92855469 2.77679688 -7.00945312 2.70203125 -6.0625 2.625 C-5.14597656 2.55539063 -4.22945312 2.48578125 -3.28515625 2.4140625 C-2.15400391 2.20910156 -2.15400391 2.20910156 -1 2 C-0.67 1.34 -0.34 0.68 0 0 Z " fill="#FBF9F9" transform="translate(87,60)"/>
<path d="M0 0 C1.45823212 -0.0270043 2.91660675 -0.04639787 4.375 -0.0625 C5.18710937 -0.07410156 5.99921875 -0.08570313 6.8359375 -0.09765625 C9 0 9 0 11 1 C12.64480884 1.10156624 14.29094949 1.18230042 15.9375 1.25 C20.71106456 1.67707215 20.71106456 1.67707215 23.125 4.375 C24 7 24 7 24 10 C23.34 10 22.68 10 22 10 C22 10.66 22 11.32 22 12 C21.34 12 20.68 12 20 12 C19.1028125 10.576875 19.1028125 10.576875 18.1875 9.125 C15.89535212 5.85050303 14.75819708 5.04394363 11 4 C11 5.98 11 7.96 11 10 C9.02 10.99 9.02 10.99 7 12 C6.67 9.69 6.34 7.38 6 5 C3.69 5 1.38 5 -1 5 C-0.67 3.35 -0.34 1.7 0 0 Z " fill="#44517E" transform="translate(42,59)"/>
<path d="M0 0 C0.66 0 1.32 0 2 0 C3.125 5.75 3.125 5.75 2 8 C2.99 8.33 3.98 8.66 5 9 C4.67 10.32 4.34 11.64 4 13 C4.66 13 5.32 13 6 13 C8 15 8 15 8 18 C8.66 18.33 9.32 18.66 10 19 C9.34 19.66 8.68 20.32 8 21 C7.01 21 6.02 21 5 21 C4.34 21.66 3.68 22.32 3 23 C2.0097347 21.29807615 1.03326794 19.58811989 0.0625 17.875 C-0.48277344 16.92367187 -1.02804688 15.97234375 -1.58984375 14.9921875 C-3.04458421 11.90539749 -3.69535253 9.38920309 -4 6 C-3.0625 3.625 -3.0625 3.625 -2 2 C-1.34 2 -0.68 2 0 2 C0 1.34 0 0.68 0 0 Z " fill="#B24244" transform="translate(9,62)"/>
<path d="M0 0 C1.2065625 0.0309375 1.2065625 0.0309375 2.4375 0.0625 C2.4375 1.0525 2.4375 2.0425 2.4375 3.0625 C1.4475 3.5575 1.4475 3.5575 0.4375 4.0625 C0.4375 6.7025 0.4375 9.3425 0.4375 12.0625 C-3.6152516 13.04498524 -7.40111737 13.14409574 -11.5625 13.0625 C-12.75 10.8125 -12.75 10.8125 -13.5625 8.0625 C-12.1875 5.75 -12.1875 5.75 -10.5625 4.0625 C-7.5925 4.5575 -7.5925 4.5575 -4.5625 5.0625 C-4.418125 4.423125 -4.27375 3.78375 -4.125 3.125 C-3.30589691 0.12162199 -3.19313651 0.07788138 0 0 Z M-9.5625 7.0625 C-9.5625 8.0525 -9.5625 9.0425 -9.5625 10.0625 C-8.9025 10.0625 -8.2425 10.0625 -7.5625 10.0625 C-7.5625 9.0725 -7.5625 8.0825 -7.5625 7.0625 C-8.2225 7.0625 -8.8825 7.0625 -9.5625 7.0625 Z " fill="#FEFEFE" transform="translate(219.5625,79.9375)"/>
<path d="M0 0 C0.99 0 1.98 0 3 0 C3.33 1.32 3.66 2.64 4 4 C7.465 3.505 7.465 3.505 11 3 C11 2.34 11 1.68 11 1 C12.32 1.66 13.64 2.32 15 3 C14.67 3.99 14.34 4.98 14 6 C14.99 6 15.98 6 17 6 C17 7.32 17 8.64 17 10 C10.4 9.67 3.8 9.34 -3 9 C-2.01 6.03 -1.02 3.06 0 0 Z M10 5 C9.67 5.66 9.34 6.32 9 7 C9.66 7 10.32 7 11 7 C10.67 6.34 10.34 5.68 10 5 Z " fill="#FEFEFE" transform="translate(331,98)"/>
<path d="M0 0 C0.99 0 1.98 0 3 0 C3 3.96 3 7.92 3 12 C4.65 11.67 6.3 11.34 8 11 C8.33 12.65 8.66 14.3 9 16 C6.11591611 17.36993985 3.99024715 18.2431252 0.8203125 17.46484375 C-1.14750987 16.71202914 -3.07742824 15.86184251 -5 15 C-4.34 14.67 -3.68 14.34 -3 14 C-2.34227572 10.97065509 -2.34227572 10.97065509 -2 8 C-3.65 7.67 -5.3 7.34 -7 7 C-7 6.34 -7 5.68 -7 5 C-5.68 5 -4.36 5 -3 5 C-1.96986723 3.35178756 -0.96885372 1.68496298 0 0 Z " fill="#384576" transform="translate(49,74)"/>
<path d="M0 0 C14.85 0 29.7 0 45 0 C45 8.91 45 17.82 45 27 C44.67 27 44.34 27 44 27 C44 18.42 44 9.84 44 1 C39.71 1 35.42 1 31 1 C31.33 1.99 31.66 2.98 32 4 C31.27554688 3.67128906 30.55109375 3.34257813 29.8046875 3.00390625 C26.94825995 1.98148023 25.12691106 1.82060315 22.125 1.9375 C15.03405223 2.08300508 8.07149202 1.51900859 1 1 C1 9.25 1 17.5 1 26 C0.67 26 0.34 26 0 26 C0 17.42 0 8.84 0 0 Z " fill="#5F6A91" transform="translate(30,53)"/>
<path d="M0 0 C0.66 0 1.32 0 2 0 C2 0.66 2 1.32 2 2 C3.32 2 4.64 2 6 2 C6 2.99 6 3.98 6 5 C4.65808594 5.29390625 4.65808594 5.29390625 3.2890625 5.59375 C-5.60969064 7.79472093 -11.28356506 10.6240295 -18 17 C-18.99 16.34 -19.98 15.68 -21 15 C-20.01 15 -19.02 15 -18 15 C-17.92652344 14.40703125 -17.85304688 13.8140625 -17.77734375 13.203125 C-16.72252424 10.21358628 -15.21196244 9.4286994 -12.5625 7.75 C-11.75941406 7.22921875 -10.95632812 6.7084375 -10.12890625 6.171875 C-8 5 -8 5 -6 5 C-5.67 4.34 -5.34 3.68 -5 3 C-3.35 3 -1.7 3 0 3 C0 2.01 0 1.02 0 0 Z " fill="#C46E70" transform="translate(40,7)"/>
<path d="M0 0 C2.38564077 0.57584432 4.66682784 1.22227595 7 2 C7 2.99 7 3.98 7 5 C7.66 5 8.32 5 9 5 C9.12375 6.010625 9.2475 7.02125 9.375 8.0625 C9.89291862 11.94862413 9.89291862 11.94862413 11.0625 15.375 C12.17814388 19.688823 12.18055436 23.57641826 12 28 C11.01 27.67 10.02 27.34 9 27 C8.67 24.03 8.34 21.06 8 18 C8.66 18 9.32 18 10 18 C10 17.34 10 16.68 10 16 C9.01 15.67 8.02 15.34 7 15 C6.67 13.35 6.34 11.7 6 10 C5.34 10 4.68 10 4 10 C4 8.68 4 7.36 4 6 C2.68662604 4.9739266 1.35335895 3.97272675 0 3 C0 2.01 0 1.02 0 0 Z " fill="#C36C6E" transform="translate(85,25)"/>
<path d="M0 0 C0.66 0 1.32 0 2 0 C2 1.32 2 2.64 2 4 C2.99 4 3.98 4 5 4 C5.33 5.65 5.66 7.3 6 9 C4.34385343 9.38218767 2.67542976 9.71395102 1 10 C0.67 9.67 0.34 9.34 0 9 C-0.33 9.66 -0.66 10.32 -1 11 C-3.31 10.34 -5.62 9.68 -8 9 C-8.33 7.35 -8.66 5.7 -9 4 C-6.69 4 -4.38 4 -2 4 C-1.34 2.68 -0.68 1.36 0 0 Z " fill="#FEFEFE" transform="translate(271,97)"/>
<path d="M0 0 C1.875 1.1875 1.875 1.1875 3 3 C2.875 5.5625 2.875 5.5625 2 8 C-1 10 -1 10 -4.1875 9.625 C-5.5796875 9.315625 -5.5796875 9.315625 -7 9 C-7.33 6.69 -7.66 4.38 -8 2 C-4.76746204 -0.15502531 -3.74849077 -0.46856135 0 0 Z " fill="#E5C1C2" transform="translate(55,18)"/>
<path d="M0 0 C2.66161816 5.61897168 3.3306901 9.82711812 3 16 C2.34 16 1.68 16 1 16 C0.67 15.01 0.34 14.02 0 13 C-0.99 13.33 -1.98 13.66 -3 14 C-2.67 14.99 -2.34 15.98 -2 17 C0.01508358 17.73323796 0.01508358 17.73323796 2 18 C1.67 18.66 1.34 19.32 1 20 C-0.65 20.33 -2.3 20.66 -4 21 C-4.33 17.04 -4.66 13.08 -5 9 C-4.67 9.66 -4.34 10.32 -4 11 C-3.34 11 -2.68 11 -2 11 C-2 10.34 -2 9.68 -2 9 C-1.34 9 -0.68 9 0 9 C-1.06026816 5.25207871 -1.06026816 5.25207871 -3 2 C-5.79200866 1.030782 -7.99397579 1.04927909 -11 1 C-11 0.67 -11 0.34 -11 0 C-3.375 -1.125 -3.375 -1.125 0 0 Z " fill="#EAEBF0" transform="translate(66,60)"/>
<path d="M0 0 C0.99 0 1.98 0 3 0 C3 1.32 3 2.64 3 4 C5.97 4 8.94 4 12 4 C12 5.65 12 7.3 12 9 C7.9472484 9.98248524 4.16138263 10.08159574 0 10 C0 6.7 0 3.4 0 0 Z M3 6 C4 8 4 8 4 8 Z " fill="#FDFDFD" transform="translate(173,97)"/>
<path d="M0 0 C-0.33 3.3 -0.66 6.6 -1 10 C-7.8359375 10.1953125 -7.8359375 10.1953125 -10 10 C-10.66 9.34 -11.32 8.68 -12 8 C-11.625 5.875 -11.625 5.875 -11 4 C-9.02 4 -7.04 4 -5 4 C-5 3.01 -5 2.02 -5 1 C-3 0 -3 0 0 0 Z " fill="#FDFDFD" transform="translate(299,97)"/>
<path d="M0 0 C0.66 0 1.32 0 2 0 C2 0.66 2 1.32 2 2 C4.67375299 3.10095711 7.27869956 4.07962845 10.0625 4.875 C13.26357035 6.10094184 14.85203091 7.35634574 17 10 C17 10.66 17 11.32 17 12 C17.66 12 18.32 12 19 12 C19 12.66 19 13.32 19 14 C14.42354352 13.45048177 11.1064246 11.45767256 7.3125 9 C3.23886868 6.35684469 3.23886868 6.35684469 -1 4 C-0.67 2.68 -0.34 1.36 0 0 Z " fill="#C36D6F" transform="translate(66,9)"/>
<path d="M0 0 C1.32 0 2.64 0 4 0 C3.67515625 1.17369141 3.67515625 1.17369141 3.34375 2.37109375 C3.0653125 3.38300781 2.786875 4.39492188 2.5 5.4375 C2.08234375 6.95150391 2.08234375 6.95150391 1.65625 8.49609375 C0.95774542 10.72980861 0.95774542 10.72980861 1 12 C1 16 1 20 1 24 C0.01 24 -0.98 24 -2 24 C-2.19676277 15.70316995 -2.25943749 8.04924606 0 0 Z " fill="#C57173" transform="translate(9,37)"/>
<path d="M0 0 C0.9075 0.94875 1.815 1.8975 2.75 2.875 C6.91113989 6.49894355 10.96127046 7.04238344 16.328125 7.67578125 C19 8 19 8 22 9 C22.33 8.67 22.66 8.34 23 8 C25.05983171 7.72889196 27.12304115 7.48327219 29.1875 7.25 C35.04969469 6.41254362 38.01052032 5.33143508 42 1 C41.6875 2.9375 41.6875 2.9375 41 5 C40.01 5.33 39.02 5.66 38 6 C37.67 6.99 37.34 7.98 37 9 C36.09636719 9.04898438 35.19273438 9.09796875 34.26171875 9.1484375 C32.49248047 9.26058594 32.49248047 9.26058594 30.6875 9.375 C28.92986328 9.47941406 28.92986328 9.47941406 27.13671875 9.5859375 C23.84300113 9.78613747 23.84300113 9.78613747 21 12 C20.01 11.34 19.02 10.68 18 10 C16.07096181 9.67431823 14.13114593 9.40998023 12.1875 9.1875 C6.5969411 8.33366919 3.73594222 7.25482308 0 3 C0 2.01 0 1.02 0 0 Z " fill="#BFB0BC" transform="translate(31,82)"/>
<path d="M0 0 C0.9590625 0.804375 0.9590625 0.804375 1.9375 1.625 C1.9375 2.285 1.9375 2.945 1.9375 3.625 C-4.73772647 4.73977625 -9.05335195 4.89084133 -15.0625 1.625 C-15.0625 0.965 -15.0625 0.305 -15.0625 -0.375 C-9.9450368 -2.08082107 -4.95015369 -2.22251798 0 0 Z " fill="#F2F3F6" transform="translate(61.0625,56.375)"/>
<path d="M0 0 C0.66 0.33 1.32 0.66 2 1 C1.46274105 4.37705625 0.88935377 7.696686 0 11 C-1.98 11 -3.96 11 -6 11 C-6.375 7.75 -6.375 7.75 -6 4 C-3 1.5625 -3 1.5625 0 0 Z " fill="#BE5F61" transform="translate(25,39)"/>
<path d="M0 0 C0.66 0 1.32 0 2 0 C2 0.66 2 1.32 2 2 C3.98 2 5.96 2 8 2 C8.38218767 3.65614657 8.71395102 5.32457024 9 7 C8 8 8 8 5.93359375 8.09765625 C5.10988281 8.08605469 4.28617188 8.07445313 3.4375 8.0625 C2.61121094 8.05347656 1.78492188 8.04445313 0.93359375 8.03515625 C0.29550781 8.02355469 -0.34257812 8.01195313 -1 8 C-1.04241723 5.66705225 -1.04092937 3.33297433 -1 1 C-0.67 0.67 -0.34 0.34 0 0 Z M5 4 C6 6 6 6 6 6 Z " fill="#FDFDFD" transform="translate(162,99)"/>
<path d="M0 0 C2.31 0 4.62 0 7 0 C7.33 1.98 7.66 3.96 8 6 C4.25 9 4.25 9 2 9 C2 8.34 2 7.68 2 7 C1.34 7 0.68 7 0 7 C0 4.69 0 2.38 0 0 Z " fill="#C9CDD9" transform="translate(41,69)"/>
<path d="M0 0 C5.30927425 -0.43518641 5.30927425 -0.43518641 8 0 C10.45321644 2.83653151 11 4.25123496 11 8 C10.34 8 9.68 8 9 8 C9 8.66 9 9.32 9 10 C8.34 10 7.68 10 7 10 C5.61558 8.03501678 4.28796166 6.02951535 3 4 C2.01133494 2.65824027 1.0161846 1.32103998 0 0 Z " fill="#3C4978" transform="translate(55,61)"/>
<path d="M0 0 C2.0625 0.4375 2.0625 0.4375 4 1 C4.84454356 4.37817425 5.10844919 6.67465243 4 10 C2.35 10 0.7 10 -1 10 C-2.10717914 6.67846257 -1.9099978 4.36699184 -1 1 C-0.67 0.67 -0.34 0.34 0 0 Z " fill="#FDFDFD" transform="translate(281,97)"/>
<path d="M0 0 C0 1.98 0 3.96 0 6 C-2.31 6.33 -4.62 6.66 -7 7 C-8.0625 5.1875 -8.0625 5.1875 -9 3 C-8.67 2.01 -8.34 1.02 -8 0 C-4.71023192 -1.09658936 -3.28696233 -0.79953138 0 0 Z " fill="#DDADAE" transform="translate(86,57)"/>
<path d="M0 0 C2.6635969 0.35994553 4.58183452 0.71161002 6.8125 2.25 C8.39364795 4.58011277 8.22337696 6.24501755 8 9 C7.67 8.34 7.34 7.68 7 7 C4.36 7 1.72 7 -1 7 C-0.67 4.69 -0.34 2.38 0 0 Z " fill="#E8EAEF" transform="translate(53,63)"/>
<path d="M0 0 C1.21236328 0.01353516 1.21236328 0.01353516 2.44921875 0.02734375 C3.37154297 0.04474609 3.37154297 0.04474609 4.3125 0.0625 C4.3125 0.3925 4.3125 0.7225 4.3125 1.0625 C-1.1325 1.5575 -1.1325 1.5575 -6.6875 2.0625 C-6.6875 2.7225 -6.6875 3.3825 -6.6875 4.0625 C-5.3675 4.3925 -4.0475 4.7225 -2.6875 5.0625 C-5.3275 5.3925 -7.9675 5.7225 -10.6875 6.0625 C-10.3575 8.7025 -10.0275 11.3425 -9.6875 14.0625 C-10.6775 14.3925 -11.6675 14.7225 -12.6875 15.0625 C-13.4167031 12.01973432 -13.90789195 9.1952142 -13.6875 6.0625 C-10.37161384 1.28895919 -5.54416222 -0.08035018 0 0 Z " fill="#AAB0C4" transform="translate(52.6875,53.9375)"/>
<path d="M0 0 C0.99 0 1.98 0 3 0 C2.67 3.3 2.34 6.6 2 10 C1.34 9.34 0.68 8.68 0 8 C-0.99 8.495 -0.99 8.495 -2 9 C-4.625 8.0625 -4.625 8.0625 -7 7 C-7 6.34 -7 5.68 -7 5 C-5.68 5 -4.36 5 -3 5 C-1.96986723 3.35178756 -0.96885372 1.68496298 0 0 Z " fill="#545F88" transform="translate(49,74)"/>
<path d="M0 0 C1.32 0.33 2.64 0.66 4 1 C4 1.66 4 2.32 4 3 C5.32 3.33 6.64 3.66 8 4 C7.01 4 6.02 4 5 4 C5 4.66 5 5.32 5 6 C5.66 6.33 6.32 6.66 7 7 C3.7 7 0.4 7 -3 7 C-3 5.68 -3 4.36 -3 3 C-2.01 3 -1.02 3 0 3 C0 2.01 0 1.02 0 0 Z " fill="#BC5A5C" transform="translate(50,92)"/>
<path d="M0 0 C0.33 0 0.66 0 1 0 C1 2.31 1 4.62 1 7 C-0.32 7.33 -1.64 7.66 -3 8 C-2.67 8.99 -2.34 9.98 -2 11 C0.01508358 11.73323796 0.01508358 11.73323796 2 12 C1.67 12.66 1.34 13.32 1 14 C-0.65 14.33 -2.3 14.66 -4 15 C-4.33 11.04 -4.66 7.08 -5 3 C-4.67 3.66 -4.34 4.32 -4 5 C-3.34 5 -2.68 5 -2 5 C-2 4.34 -2 3.68 -2 3 C-1.34 3 -0.68 3 0 3 C0 2.01 0 1.02 0 0 Z " fill="#838BA9" transform="translate(66,66)"/>
<path d="M0 0 C1.32 0 2.64 0 4 0 C4 0.66 4 1.32 4 2 C4.66 2 5.32 2 6 2 C6 3.65 6 5.3 6 7 C4.02 7 2.04 7 0 7 C0 4.69 0 2.38 0 0 Z " fill="#EBD1D1" transform="translate(46,40)"/>
<path d="M0 0 C1.1446875 0.2784375 1.1446875 0.2784375 2.3125 0.5625 C5.08967375 1.22819173 5.08967375 1.22819173 8 0 C8.33 0.99 8.66 1.98 9 3 C8.67 3.66 8.34 4.32 8 5 C5.36 5 2.72 5 0 5 C0 3.35 0 1.7 0 0 Z " fill="#C97C7E" transform="translate(48,6)"/>
<path d="M0 0 C2.38564077 0.57584432 4.66682784 1.22227595 7 2 C7 2.99 7 3.98 7 5 C7.66 5.33 8.32 5.66 9 6 C8.01 6.495 8.01 6.495 7 7 C6.67 7.99 6.34 8.98 6 10 C5.34 10 4.68 10 4 10 C4 8.68 4 7.36 4 6 C2.68662604 4.9739266 1.35335895 3.97272675 0 3 C0 2.01 0 1.02 0 0 Z " fill="#B64B4D" transform="translate(85,25)"/>
<path d="M0 0 C1.32 0.99 2.64 1.98 4 3 C3.67 4.65 3.34 6.3 3 8 C1.68 8.33 0.36 8.66 -1 9 C-1.09765625 2.84765625 -1.09765625 2.84765625 -1 1 C-0.67 0.67 -0.34 0.34 0 0 Z " fill="#E6C4C5" transform="translate(54,18)"/>
<path d="M0 0 C0.33 0.66 0.66 1.32 1 2 C1.66 2 2.32 2 3 2 C3.33 2.99 3.66 3.98 4 5 C4.66 5 5.32 5 6 5 C5.67 6.65 5.34 8.3 5 10 C3.68 9.67 2.36 9.34 1 9 C0.67 7.68 0.34 6.36 0 5 C-0.99 5 -1.98 5 -3 5 C-1.125 1.125 -1.125 1.125 0 0 Z " fill="#C26A6B" transform="translate(22,83)"/>
<path d="M0 0 C0.33 0.66 0.66 1.32 1 2 C3.52733235 2.65555119 3.52733235 2.65555119 6 3 C5.67 4.65 5.34 6.3 5 8 C2.13275314 7.42655063 1.1385485 7.1385485 -1 5 C-0.625 2.375 -0.625 2.375 0 0 Z " fill="#E0E2E9" transform="translate(41,79)"/>
<path d="M0 0 C0.99 0.33 1.98 0.66 3 1 C3.125 6.75 3.125 6.75 2 9 C2.66 9 3.32 9 4 9 C4 9.66 4 10.32 4 11 C2.35 10.67 0.7 10.34 -1 10 C-0.67 6.7 -0.34 3.4 0 0 Z " fill="#C57273" transform="translate(94,55)"/>
<path d="M0 0 C2 2 2 2 2 4 C-1.29549466 5.72264494 -4.33118845 7.29445932 -8 8 C-8 7.01 -8 6.02 -8 5 C-7.4225 4.731875 -6.845 4.46375 -6.25 4.1875 C-3.9674132 2.98280141 -2.0262058 1.59201885 0 0 Z " fill="#C57374" transform="translate(81,85)"/>
<path d="M0 0 C0.66 0 1.32 0 2 0 C3.2077558 3.62326739 2.54311128 4.64146369 1 8 C-1.475 7.01 -1.475 7.01 -4 6 C-3.67 4.68 -3.34 3.36 -3 2 C-2.01 2 -1.02 2 0 2 C0 1.34 0 0.68 0 0 Z " fill="#C36C6E" transform="translate(14,27)"/>
<path d="M0 0 C0.99 0.33 1.98 0.66 3 1 C3.33 3.31 3.66 5.62 4 8 C2.35 8 0.7 8 -1 8 C-0.67 5.36 -0.34 2.72 0 0 Z " fill="#E5C4C4" transform="translate(51,30)"/>
<path d="M0 0 C0.66 0.33 1.32 0.66 2 1 C0.68 2.32 -0.64 3.64 -2 5 C-1.34 5.66 -0.68 6.32 0 7 C-0.99 7.99 -1.98 8.98 -3 10 C-2.34 10.66 -1.68 11.32 -1 12 C-2.32 12 -3.64 12 -5 12 C-5 10.35 -5 8.7 -5 7 C-5.66 6.67 -6.32 6.34 -7 6 C-4.69 4.02 -2.38 2.04 0 0 Z " fill="#B64C4E" transform="translate(76,82)"/>
<path d="M0 0 C2.475 0.99 2.475 0.99 5 2 C4.8125 3.8125 4.8125 3.8125 4 6 C1.4375 7.75 1.4375 7.75 -1 9 C-1.33 8.34 -1.66 7.68 -2 7 C-1.34 7 -0.68 7 0 7 C0 4.69 0 2.38 0 0 Z " fill="#C06465" transform="translate(91,68)"/>
<path d="M0 0 C0.33 0.66 0.66 1.32 1 2 C1.99 2 2.98 2 4 2 C4 2.66 4 3.32 4 4 C3.34 4 2.68 4 2 4 C2 5.65 2 7.3 2 9 C1.01 9 0.02 9 -1 9 C-1 7.35 -1 5.7 -1 4 C-1.66 4 -2.32 4 -3 4 C-3 3.34 -3 2.68 -3 2 C-2.01 2 -1.02 2 0 2 C0 1.34 0 0.68 0 0 Z " fill="#CA7C7E" transform="translate(81,40)"/>
<path d="M0 0 C0.66 0 1.32 0 2 0 C2 0.66 2 1.32 2 2 C3.32 2 4.64 2 6 2 C6 2.99 6 3.98 6 5 C3.36 5.33 0.72 5.66 -2 6 C-2 5.01 -2 4.02 -2 3 C-1.34 3 -0.68 3 0 3 C0 2.01 0 1.02 0 0 Z " fill="#C26B6C" transform="translate(40,7)"/>
<path d="M0 0 C1.32 0.66 2.64 1.32 4 2 C0.55384615 6.8 0.55384615 6.8 -2.25 7.8125 C-3.11625 7.9053125 -3.11625 7.9053125 -4 8 C-4 7.01 -4 6.02 -4 5 C-3.34 5 -2.68 5 -2 5 C-1.34 3.35 -0.68 1.7 0 0 Z " fill="#C36E6F" transform="translate(87,77)"/>
<path d="M0 0 C0.33 0.99 0.66 1.98 1 3 C2.65 3 4.3 3 6 3 C6.33 2.01 6.66 1.02 7 0 C7 1.32 7 2.64 7 4 C7.66 4.33 8.32 4.66 9 5 C5.67438135 6.76062164 4.40826005 7.10784228 0.6875 6.125 C-0.199375 5.75375 -1.08625 5.3825 -2 5 C-1.34 4.67 -0.68 4.34 0 4 C0 2.68 0 1.36 0 0 Z " fill="#C97D7E" transform="translate(49,35)"/>
<path d="M0 0 C0.99 1.485 0.99 1.485 2 3 C2.33 2.34 2.66 1.68 3 1 C3.66 1 4.32 1 5 1 C5 1.99 5 2.98 5 4 C5.66 4 6.32 4 7 4 C7 4.66 7 5.32 7 6 C4.625 6.625 4.625 6.625 2 7 C0 5 0 5 -0.125 2.375 C-0.08375 1.59125 -0.0425 0.8075 0 0 Z " fill="#D19091" transform="translate(19,57)"/>
<path d="M0 0 C0.66 0.33 1.32 0.66 2 1 C1.67 2.98 1.34 4.96 1 7 C0.67 6.34 0.34 5.68 0 5 C-1.98 5 -3.96 5 -6 5 C-4.00856305 2.01284458 -3.23356015 1.21258505 0 0 Z " fill="#C97B7C" transform="translate(25,39)"/>
<path d="M0 0 C0.66 0 1.32 0 2 0 C2.33 0.99 2.66 1.98 3 3 C0.69 4.65 -1.62 6.3 -4 8 C-4.66 7.34 -5.32 6.68 -6 6 C-5.01 6 -4.02 6 -3 6 C-2.87625 5.38125 -2.7525 4.7625 -2.625 4.125 C-2 2 -2 2 0 0 Z " fill="#C87B7C" transform="translate(25,16)"/>
<path d="M0 0 C0.99 0.33 1.98 0.66 3 1 C2.21625 1.61875 1.4325 2.2375 0.625 2.875 C-1.96837647 4.89858661 -1.96837647 4.89858661 -4 7 C-4.99 6.67 -5.98 6.34 -7 6 C-6.67 5.01 -6.34 4.02 -6 3 C-5.67 3.33 -5.34 3.66 -5 4 C-4.54625 3.525625 -4.0925 3.05125 -3.625 2.5625 C-2 1 -2 1 0 0 Z " fill="#ADB2C6" transform="translate(58,75)"/>
<path d="M0 0 C0.99 0.33 1.98 0.66 3 1 C2.67 2.32 2.34 3.64 2 5 C2.66 5 3.32 5 4 5 C4.66 6.32 5.32 7.64 6 9 C5.01 9 4.02 9 3 9 C2.34 7.35 1.68 5.7 1 4 C0.34 4 -0.32 4 -1 4 C-0.67 2.68 -0.34 1.36 0 0 Z " fill="#C47172" transform="translate(11,70)"/>
<path d="M0 0 C0.66 0 1.32 0 2 0 C2 0.66 2 1.32 2 2 C2.66 2 3.32 2 4 2 C4.33 2.99 4.66 3.98 5 5 C4.360625 5.103125 3.72125 5.20625 3.0625 5.3125 C2.381875 5.539375 1.70125 5.76625 1 6 C0.67 6.99 0.34 7.98 0 9 C-1.53445094 5.93109813 -0.54984289 3.29905734 0 0 Z " fill="#E5E7ED" transform="translate(53,71)"/>
<path d="M0 0 C2.64 0 5.28 0 8 0 C8 1.65 8 3.3 8 5 C7.67 4.34 7.34 3.68 7 3 C4.36 3 1.72 3 -1 3 C-0.67 2.01 -0.34 1.02 0 0 Z " fill="#BFC3D2" transform="translate(53,67)"/>
<path d="M0 0 C0.66 0 1.32 0 2 0 C2.33 1.98 2.66 3.96 3 6 C1.35 6.33 -0.3 6.66 -2 7 C-2 5.35 -2 3.7 -2 2 C-1.34 2 -0.68 2 0 2 C0 1.34 0 0.68 0 0 Z " fill="#CA7F80" transform="translate(9,62)"/>
<path d="M0 0 C0.33 0.99 0.66 1.98 1 3 C0.01 4.485 0.01 4.485 -1 6 C-1.165 5.360625 -1.33 4.72125 -1.5 4.0625 C-2.781786 1.83880759 -2.781786 1.83880759 -4.9140625 1.51171875 C-6.93575155 1.2724022 -8.96841939 1.13106972 -11 1 C-11 0.67 -11 0.34 -11 0 C-3.375 -1.125 -3.375 -1.125 0 0 Z " fill="#AAB0C4" transform="translate(66,60)"/>
<path d="M0 0 C0.99 0 1.98 0 3 0 C3 1.98 3 3.96 3 6 C1.68 6 0.36 6 -1 6 C-1.042721 4.33388095 -1.04063832 2.66617115 -1 1 C-0.67 0.67 -0.34 0.34 0 0 Z " fill="#F0DDDD" transform="translate(55,40)"/>
<path d="M0 0 C0.99 0.33 1.98 0.66 3 1 C3 3.97 3 6.94 3 10 C2.01 10 1.02 10 0 10 C-1.125 2.25 -1.125 2.25 0 0 Z " fill="#D39596" transform="translate(51,18)"/>
<path d="M0 0 C0.33 0.99 0.66 1.98 1 3 C0.360625 3.268125 -0.27875 3.53625 -0.9375 3.8125 C-3.33131686 4.88667752 -3.33131686 4.88667752 -4 8 C-5.32 8 -6.64 8 -8 8 C-8 7.34 -8 6.68 -8 6 C-7.05125 5.566875 -6.1025 5.13375 -5.125 4.6875 C-1.79958063 3.20697799 -1.79958063 3.20697799 0 0 Z " fill="#BA939D" transform="translate(72,83)"/>
<path d="M0 0 C0.66 0 1.32 0 2 0 C2.33 1.65 2.66 3.3 3 5 C2.01 5 1.02 5 0 5 C0 5.66 0 6.32 0 7 C-0.99 6.67 -1.98 6.34 -3 6 C-2.67 5.01 -2.34 4.02 -2 3 C-1.34 3 -0.68 3 0 3 C0 2.01 0 1.02 0 0 Z " fill="#F1F1F4" transform="translate(46,69)"/>
<path d="M0 0 C1.98 0.495 1.98 0.495 4 1 C3.67 2.32 3.34 3.64 3 5 C1.68 4.67 0.36 4.34 -1 4 C-0.67 2.68 -0.34 1.36 0 0 Z " fill="#FDFDFD" transform="translate(196,57)"/>
<path d="M0 0 C0.33 0 0.66 0 1 0 C1 2.64 1 5.28 1 8 C0.01 8 -0.98 8 -2 8 C-2 6.02 -2 4.04 -2 2 C-1.34 2 -0.68 2 0 2 C0 1.34 0 0.68 0 0 Z " fill="#C8797A" transform="translate(9,53)"/>
<path d="M0 0 C3 0 3 0 6 1 C5.34 1 4.68 1 4 1 C3.67 2.65 3.34 4.3 3 6 C2.67 5.01 2.34 4.02 2 3 C0.68 3.33 -0.64 3.66 -2 4 C-1.34 2.68 -0.68 1.36 0 0 Z " fill="#DBDEE6" transform="translate(61,79)"/>
<path d="M0 0 C1.32 0 2.64 0 4 0 C4 1.65 4 3.3 4 5 C2.68 4.67 1.36 4.34 0 4 C0 2.68 0 1.36 0 0 Z " fill="#FDFDFD" transform="translate(258,72)"/>
<path d="M0 0 C0.33 0 0.66 0 1 0 C1 1.98 1 3.96 1 6 C-0.98 6.99 -0.98 6.99 -3 8 C-3.33 6.35 -3.66 4.7 -4 3 C-3.01 3 -2.02 3 -1 3 C-0.67 2.01 -0.34 1.02 0 0 Z " fill="#677196" transform="translate(52,63)"/>
<path d="M0 0 C0.33 0.66 0.66 1.32 1 2 C2.65 1.67 4.3 1.34 6 1 C5.67 1.99 5.34 2.98 5 4 C3.35 4.33 1.7 4.66 0 5 C0 3.35 0 1.7 0 0 Z " fill="#757FA0" transform="translate(51,84)"/>
<path d="M0 0 C0.66 0.33 1.32 0.66 2 1 C1.67 2.65 1.34 4.3 1 6 C-0.98 5.34 -2.96 4.68 -5 4 C-5 3.34 -5 2.68 -5 2 C-3.68 2 -2.36 2 -1 2 C-0.67 1.34 -0.34 0.68 0 0 Z " fill="#9299B3" transform="translate(47,77)"/>
<path d="M0 0 C1.32 0.33 2.64 0.66 4 1 C4 1.66 4 2.32 4 3 C4.66 3.33 5.32 3.66 6 4 C4.125 4.625 4.125 4.625 2 5 C1.34 4.34 0.68 3.68 0 3 C0 2.01 0 1.02 0 0 Z " fill="#C16869" transform="translate(85,25)"/>
<path d="M0 0 C2.64 0 5.28 0 8 0 C8 0.33 8 0.66 8 1 C6.02 1.33 4.04 1.66 2 2 C2.33 2.66 2.66 3.32 3 4 C1.68 4 0.36 4 -1 4 C-0.67 2.68 -0.34 1.36 0 0 Z " fill="#B5494B" transform="translate(55,91)"/>
<path d="M0 0 C0.33 0 0.66 0 1 0 C1.33 1.65 1.66 3.3 2 5 C3.32 5.33 4.64 5.66 6 6 C5.67 6.66 5.34 7.32 5 8 C2.4375 8.625 2.4375 8.625 0 9 C0 6.03 0 3.06 0 0 Z " fill="#9FA6BD" transform="translate(62,72)"/>
<path d="M0 0 C2.50037734 2.17424117 3.43628586 3.73045798 4 7 C2.68 6.67 1.36 6.34 0 6 C0 4 0 2 0 0 Z " fill="#E7C7C8" transform="translate(78,57)"/>
<path d="M0 0 C1.32 0 2.64 0 4 0 C4 4 4 4 3 6 C2.34 6 1.68 6 1 6 C0.34 4.35 -0.32 2.7 -1 1 C-0.67 0.67 -0.34 0.34 0 0 Z " fill="#BB585A" transform="translate(18,20)"/>
<path d="M0 0 C0.99 0.33 1.98 0.66 3 1 C2.67 1.66 2.34 2.32 2 3 C1.01 2.67 0.02 2.34 -1 2 C-0.67 1.34 -0.34 0.68 0 0 Z " fill="#FEFEFE" transform="translate(224,97)"/>
<path d="M0 0 C0.66 0 1.32 0 2 0 C2 0.99 2 1.98 2 3 C1.01 2.67 0.02 2.34 -1 2 C-0.67 1.34 -0.34 0.68 0 0 Z " fill="#FEFEFE" transform="translate(203,97)"/>
</svg>
